<svg version="1.1" viewBox="0.0 0.0 960.0 540.0" fill="none" stroke="none" stroke-linecap="square" stroke-miterlimit="10" xmlns:xlink="http://www.w3.org/1999/xlink" xmlns="http://www.w3.org/2000/svg"><clipPath id="p.0"><path d="m0 0l960.0 0l0 540.0l-960.0 0l0 -540.0z" clip-rule="nonzero"/></clipPath><g clip-path="url(#p.0)"><path fill="#ffffff" d="m0 0l960.0 0l0 540.0l-960.0 0z" fill-rule="evenodd"/><path fill="#000000" fill-opacity="0.0" d="m696.7008 188.03674l241.82678 0l0 249.35434l-241.82678 0z" fill-rule="evenodd"/><path stroke="#d9d9d9" stroke-width="3.0" stroke-linejoin="round" stroke-linecap="butt" stroke-dasharray="12.0,9.0" d="m696.7008 188.03674l241.82678 0l0 249.35434l-241.82678 0z" fill-rule="evenodd"/><path fill="#000000" fill-opacity="0.0" d="m21.47244 188.03674l241.82678 0l0 249.35434l-241.82678 0z" fill-rule="evenodd"/><path stroke="#d9d9d9" stroke-width="3.0" stroke-linejoin="round" stroke-linecap="butt" stroke-dasharray="12.0,9.0" d="m21.47244 188.03674l241.82678 0l0 249.35434l-241.82678 0z" fill-rule="evenodd"/><path fill="#000000" fill-opacity="0.0" d="m105.04724 294.1286l74.67717 0l0 37.165375l-74.67717 0z" fill-rule="evenodd"/><path stroke="#d9d9d9" stroke-width="3.0" stroke-linejoin="round" stroke-linecap="butt" d="m105.04724 294.1286l74.67717 0l0 37.165375l-74.67717 0z" fill-rule="evenodd"/><path fill="#d9d9d9" d="m122.78432 319.8188q-2.265625 0 -3.515625 -1.25q-1.234375 -1.265625 -1.234375 -3.96875q0 -1.875 0.625 -3.046875q0.640625 -1.171875 1.765625 -1.734375q1.125 -0.5625 2.609375 -0.5625q1.046875 0 1.8125 0.203125q0.78125 0.203125 1.359375 0.484375l-0.828125 2.15625q-0.65625 -0.265625 -1.21875 -0.4375q-0.5625 -0.171875 -1.125 -0.171875q-2.171875 0 -2.171875 3.078125q0 1.53125 0.5625 2.265625q0.578125 0.71875 1.609375 0.71875q0.875 0 1.546875 -0.21875q0.671875 -0.234375 1.296875 -0.65625l0 2.375q-0.625 0.40625 -1.328125 0.578125q-0.703125 0.1875 -1.765625 0.1875zm17.40181 -10.5625q1.75 0 2.625 0.890625q0.890625 0.890625 0.890625 2.84375l0 6.640625l-2.78125 0l0 -5.953125q0 -2.203125 -1.53125 -2.203125q-1.09375 0 -1.5625 0.796875q-0.46875 0.78125 -0.46875 2.25l0 5.109375l-2.78125 0l0 -5.953125q0 -2.203125 -1.53125 -2.203125q-1.15625 0 -1.59375 0.875q-0.4375 0.859375 -0.4375 2.484375l0 4.796875l-2.78125 0l0 -10.1875l2.125 0l0.375 1.3125l0.15625 0q0.46875 -0.78125 1.265625 -1.140625q0.8125 -0.359375 1.703125 -0.359375q1.109375 0 1.890625 0.375q0.78125 0.359375 1.203125 1.125l0.234375 0q0.46875 -0.78125 1.296875 -1.140625q0.828125 -0.359375 1.703125 -0.359375zm9.601685 10.5625q-1.703125 0 -2.78125 -1.328125q-1.0625 -1.34375 -1.0625 -3.9375q0 -2.609375 1.078125 -3.953125q1.078125 -1.34375 2.828125 -1.34375q1.109375 0 1.8125 0.4375q0.71875 0.421875 1.125 1.0625l0.09375 0q-0.0625 -0.296875 -0.140625 -0.859375q-0.0625 -0.578125 -0.0625 -1.171875l0 -3.265625l2.78125 0l0 14.171875l-2.125 0l-0.546875 -1.328125l-0.109375 0q-0.421875 0.640625 -1.109375 1.078125q-0.6875 0.4375 -1.78125 0.4375zm0.96875 -2.21875q1.15625 0 1.625 -0.671875q0.46875 -0.6875 0.484375 -2.046875l0 -0.3125q0 -1.484375 -0.46875 -2.265625q-0.453125 -0.78125 -1.6875 -0.78125q-0.90625 0 -1.4375 0.796875q-0.515625 0.78125 -0.515625 2.28125q0 1.484375 0.515625 2.25q0.53125 0.75 1.484375 0.75zm13.856277 2.03125l-2.8125 0l0 -7.703125q0 -0.484375 0.015625 -1.265625q0.03125 -0.78125 0.0625 -1.390625q-0.09375 0.109375 -0.40625 0.40625q-0.3125 0.296875 -0.5625 0.515625l-1.53125 1.234375l-1.375 -1.703125l4.296875 -3.421875l2.3125 0l0 13.328125z" fill-rule="nonzero"/><path fill="#000000" fill-opacity="0.0" d="m780.2756 294.1286l74.677185 0l0 37.165375l-74.677185 0z" fill-rule="evenodd"/><path stroke="#d9d9d9" stroke-width="3.0" stroke-linejoin="round" stroke-linecap="butt" d="m780.2756 294.1286l74.677185 0l0 37.165375l-74.677185 0z" fill-rule="evenodd"/><path fill="#d9d9d9" d="m798.01263 319.8188q-2.265625 0 -3.515625 -1.25q-1.234375 -1.265625 -1.234375 -3.96875q0 -1.875 0.625 -3.046875q0.640625 -1.171875 1.765625 -1.734375q1.125 -0.5625 2.609375 -0.5625q1.046875 0 1.8125 0.203125q0.78125 0.203125 1.359375 0.484375l-0.828125 2.15625q-0.65625 -0.265625 -1.21875 -0.4375q-0.5625 -0.171875 -1.125 -0.171875q-2.171875 0 -2.171875 3.078125q0 1.53125 0.5625 2.265625q0.578125 0.71875 1.609375 0.71875q0.875 0 1.546875 -0.21875q0.671875 -0.234375 1.296875 -0.65625l0 2.375q-0.625 0.40625 -1.328125 0.578125q-0.703125 0.1875 -1.765625 0.1875zm17.401855 -10.5625q1.75 0 2.625 0.890625q0.890625 0.890625 0.890625 2.84375l0 6.640625l-2.78125 0l0 -5.953125q0 -2.203125 -1.53125 -2.203125q-1.09375 0 -1.5625 0.796875q-0.46875 0.78125 -0.46875 2.25l0 5.109375l-2.78125 0l0 -5.953125q0 -2.203125 -1.53125 -2.203125q-1.15625 0 -1.59375 0.875q-0.4375 0.859375 -0.4375 2.484375l0 4.796875l-2.78125 0l0 -10.1875l2.125 0l0.375 1.3125l0.15625 0q0.46875 -0.78125 1.265625 -1.140625q0.8125 -0.359375 1.703125 -0.359375q1.109375 0 1.890625 0.375q0.78125 0.359375 1.203125 1.125l0.234375 0q0.46875 -0.78125 1.296875 -1.140625q0.828125 -0.359375 1.703125 -0.359375zm9.601685 10.5625q-1.703125 0 -2.78125 -1.328125q-1.0625 -1.34375 -1.0625 -3.9375q0 -2.609375 1.078125 -3.953125q1.078125 -1.34375 2.828125 -1.34375q1.109375 0 1.8125 0.4375q0.71875 0.421875 1.125 1.0625l0.09375 0q-0.0625 -0.296875 -0.140625 -0.859375q-0.0625 -0.578125 -0.0625 -1.171875l0 -3.265625l2.78125 0l0 14.171875l-2.125 0l-0.546875 -1.328125l-0.109375 0q-0.421875 0.640625 -1.109375 1.078125q-0.6875 0.4375 -1.78125 0.4375zm0.96875 -2.21875q1.15625 0 1.625 -0.671875q0.46875 -0.6875 0.484375 -2.046875l0 -0.3125q0 -1.484375 -0.46875 -2.265625q-0.453125 -0.78125 -1.6875 -0.78125q-0.90625 0 -1.4375 0.796875q-0.515625 0.78125 -0.515625 2.28125q0 1.484375 0.515625 2.25q0.53125 0.75 1.484375 0.75zm16.215637 2.03125l-9.3125 0l0 -1.953125l3.328125 -3.375q1.015625 -1.046875 1.625 -1.75q0.625 -0.703125 0.90625 -1.265625q0.28125 -0.578125 0.28125 -1.234375q0 -0.796875 -0.453125 -1.1875q-0.4375 -0.390625 -1.171875 -0.390625q-0.765625 0 -1.5 0.359375q-0.71875 0.34375 -1.53125 1.0l-1.53125 -1.8125q0.578125 -0.5 1.21875 -0.921875q0.65625 -0.4375 1.5 -0.703125q0.84375 -0.265625 2.046875 -0.265625q1.296875 0 2.234375 0.46875q0.953125 0.46875 1.46875 1.28125q0.515625 0.8125 0.515625 1.84375q0 1.09375 -0.4375 2.015625q-0.4375 0.90625 -1.28125 1.8125q-0.828125 0.890625 -2.0 1.96875l-1.71875 1.609375l0 0.125l5.8125 0l0 2.375z" fill-rule="nonzero"/><path fill="#000000" fill-opacity="0.0" d="m359.0866 110.8294l241.82678 0l0 362.36218l-241.82678 0z" fill-rule="evenodd"/><path stroke="#d9d9d9" stroke-width="3.0" stroke-linejoin="round" stroke-linecap="butt" d="m359.0866 110.8294l241.82678 0l0 362.36218l-241.82678 0z" fill-rule="evenodd"/><path fill="#d9d9d9" d="m465.21194 130.60127q2.46875 0 3.734375 1.28125q1.265625 1.265625 1.265625 4.0625l0 9.484375l-3.96875 0l0 -8.5q0 -3.15625 -2.1875 -3.15625q-1.5625 0 -2.234375 1.125q-0.671875 1.125 -0.671875 3.234375l0 7.296875l-3.96875 0l0 -8.5q0 -3.15625 -2.1875 -3.15625q-1.65625 0 -2.28125 1.25q-0.625 1.234375 -0.625 3.5625l0 6.84375l-3.96875 0l0 -14.546875l3.046875 0l0.53125 1.859375l0.203125 0q0.671875 -1.125 1.828125 -1.625q1.15625 -0.515625 2.421875 -0.515625q1.59375 0 2.703125 0.53125q1.125 0.515625 1.71875 1.609375l0.34375 0q0.671875 -1.125 1.84375 -1.625q1.1875 -0.515625 2.453125 -0.515625zm15.051331 -0.015625q2.9375 0 4.484375 1.265625q1.5625 1.265625 1.5625 3.875l0 9.703125l-2.765625 0l-0.765625 -1.96875l-0.109375 0q-0.9375 1.171875 -1.984375 1.703125q-1.03125 0.53125 -2.84375 0.53125q-1.953125 0 -3.234375 -1.125q-1.265625 -1.140625 -1.265625 -3.484375q0 -2.3125 1.625 -3.421875q1.625 -1.109375 4.875 -1.21875l2.53125 -0.078125l0 -0.640625q0 -1.140625 -0.609375 -1.671875q-0.59375 -0.546875 -1.65625 -0.546875q-1.0625 0 -2.078125 0.3125q-1.015625 0.3125 -2.03125 0.765625l-1.296875 -2.703125q1.171875 -0.609375 2.59375 -0.953125q1.421875 -0.34375 2.96875 -0.34375zm0.5625 8.15625q-1.921875 0.046875 -2.671875 0.6875q-0.734375 0.640625 -0.734375 1.6875q0 0.90625 0.53125 1.296875q0.53125 0.375 1.390625 0.375q1.265625 0 2.140625 -0.75q0.890625 -0.765625 0.890625 -2.15625l0 -1.203125l-1.546875 0.0625zm11.569061 -13.578125q0.875 0 1.515625 0.421875q0.640625 0.40625 0.640625 1.53125q0 1.09375 -0.640625 1.53125q-0.640625 0.421875 -1.515625 0.421875q-0.90625 0 -1.53125 -0.421875q-0.625 -0.4375 -0.625 -1.53125q0 -1.125 0.625 -1.53125q0.625 -0.421875 1.53125 -0.421875zm1.96875 5.71875l0 14.546875l-3.96875 0l0 -14.546875l3.96875 0zm12.427002 -0.28125q2.34375 0 3.75 1.28125q1.421875 1.265625 1.421875 4.0625l0 9.484375l-3.96875 0l0 -8.5q0 -1.578125 -0.5625 -2.359375q-0.5625 -0.796875 -1.78125 -0.796875q-1.8125 0 -2.484375 1.25q-0.671875 1.234375 -0.671875 3.5625l0 6.84375l-3.96875 0l0 -14.546875l3.046875 0l0.53125 1.859375l0.203125 0q0.703125 -1.125 1.90625 -1.625q1.21875 -0.515625 2.578125 -0.515625z" fill-rule="nonzero"/><g filter="url(#shadowFilter-p.1)"><use xlink:href="#p.1" transform="matrix(1.0 0.0 0.0 1.0 3.936353805774225 4.528257742782186)"/></g><defs><filter id="shadowFilter-p.1" filterUnits="userSpaceOnUse"><feGaussianBlur in="SourceAlpha" stdDeviation="3.0" result="blur"/><feComponentTransfer in="blur" color-interpolation-filters="sRGB"><feFuncR type="linear" slope="0" intercept="0.4"/><feFuncG type="linear" slope="0" intercept="0.4"/><feFuncB type="linear" slope="0" intercept="0.4"/><feFuncA type="linear" slope="0.5" intercept="0"/></feComponentTransfer></filter></defs><g id="p.1"><path fill="#000000" fill-opacity="0.0" d="m817.6142 342.04724l0 -58.677155" fill-rule="evenodd"/><path stroke="#666666" stroke-width="3.0" stroke-linejoin="round" stroke-linecap="butt" d="m817.6142 342.04724l0 -58.677155" fill-rule="evenodd"/></g><g filter="url(#shadowFilter-p.2)"><use xlink:href="#p.2" transform="matrix(1.0 0.0 0.0 1.0 3.9363538057743015 4.528257742782148)"/></g><defs><filter id="shadowFilter-p.2" filterUnits="userSpaceOnUse"><feGaussianBlur in="SourceAlpha" stdDeviation="3.0" result="blur"/><feComponentTransfer in="blur" color-interpolation-filters="sRGB"><feFuncR type="linear" slope="0" intercept="0.4"/><feFuncG type="linear" slope="0" intercept="0.4"/><feFuncB type="linear" slope="0" intercept="0.4"/><feFuncA type="linear" slope="0.5" intercept="0"/></feComponentTransfer></filter></defs><g id="p.2"><path fill="#000000" fill-opacity="0.0" d="m480.0 321.00787l0 -18.48819" fill-rule="evenodd"/><path stroke="#666666" stroke-width="4.0" stroke-linejoin="round" stroke-linecap="butt" d="m480.0 321.00787l0 -18.48819" fill-rule="evenodd"/></g><g filter="url(#shadowFilter-p.3)"><use xlink:href="#p.3" transform="matrix(1.0 0.0 0.0 1.0 3.9363538057742824 4.528257742782186)"/></g><defs><filter id="shadowFilter-p.3" filterUnits="userSpaceOnUse"><feGaussianBlur in="SourceAlpha" stdDeviation="3.0" result="blur"/><feComponentTransfer in="blur" color-interpolation-filters="sRGB"><feFuncR type="linear" slope="0" intercept="0.4"/><feFuncG type="linear" slope="0" intercept="0.4"/><feFuncB type="linear" slope="0" intercept="0.4"/><feFuncA type="linear" slope="0.5" intercept="0"/></feComponentTransfer></filter></defs><g id="p.3"><path fill="#000000" fill-opacity="0.0" d="m142.38583 342.04724l0 -58.677155" fill-rule="evenodd"/><path stroke="#666666" stroke-width="3.0" stroke-linejoin="round" stroke-linecap="butt" d="m142.38583 342.04724l0 -58.677155" fill-rule="evenodd"/></g><path fill="#000000" fill-opacity="0.0" d="m359.0866 169.17061l-78.96063 0l-18.86612 18.866135l18.86612 18.86615l78.96063 0z" fill-rule="evenodd"/><path stroke="#d9d9d9" stroke-width="3.0" stroke-linejoin="round" stroke-linecap="butt" d="m359.0866 169.17061l-78.96063 0l-18.86612 18.866135l18.86612 18.86615l78.96063 0z" fill-rule="evenodd"/><path fill="#d9d9d9" d="m296.25656 186.86299l-2.40625 0l0 8.09375l-2.78125 0l0 -8.09375l-1.53125 0l0 -1.34375l1.53125 -0.75l0 -0.75q0 -1.296875 0.4375 -2.015625q0.4375 -0.71875 1.25 -1.015625q0.8125 -0.296875 1.90625 -0.296875q0.828125 0 1.484375 0.125q0.671875 0.125 1.078125 0.296875l-0.71875 2.03125q-0.3125 -0.09375 -0.6875 -0.171875q-0.375 -0.09375 -0.859375 -0.09375q-0.578125 0 -0.84375 0.359375q-0.265625 0.359375 -0.265625 0.890625l0 0.640625l2.40625 0l0 2.09375zm10.829346 2.984375q0 2.53125 -1.328125 3.921875q-1.328125 1.375 -3.625 1.375q-1.421875 0 -2.53125 -0.609375q-1.109375 -0.625 -1.75 -1.8125q-0.625 -1.1875 -0.625 -2.875q0 -2.546875 1.3125 -3.90625q1.328125 -1.359375 3.640625 -1.359375q1.4375 0 2.53125 0.625q1.109375 0.609375 1.734375 1.78125q0.640625 1.15625 0.640625 2.859375zm-7.03125 0q0 1.515625 0.5 2.296875q0.5 0.765625 1.609375 0.765625q1.109375 0 1.59375 -0.765625q0.5 -0.78125 0.5 -2.296875q0 -1.515625 -0.5 -2.265625q-0.484375 -0.765625 -1.609375 -0.765625q-1.09375 0 -1.59375 0.765625q-0.5 0.75 -0.5 2.265625zm15.016968 -5.265625q0.203125 0 0.484375 0.03125q0.28125 0.015625 0.453125 0.046875l-0.203125 2.609375q-0.125 -0.03125 -0.390625 -0.0625q-0.25 -0.03125 -0.4375 -0.03125q-0.703125 0 -1.359375 0.25q-0.65625 0.25 -1.0625 0.8125q-0.390625 0.5625 -0.390625 1.53125l0 5.1875l-2.78125 0l0 -10.1875l2.109375 0l0.40625 1.71875l0.140625 0q0.4375 -0.78125 1.21875 -1.34375q0.796875 -0.5625 1.8125 -0.5625zm5.56369 2.546875q0 0.578125 -0.046875 1.140625q-0.046875 0.5625 -0.109375 1.140625l0.046875 0q0.28125 -0.390625 0.578125 -0.78125q0.296875 -0.40625 0.625 -0.765625l2.859375 -3.09375l3.140625 0l-4.046875 4.421875l4.28125 5.765625l-3.203125 0l-2.9375 -4.125l-1.1875 0.953125l0 3.171875l-2.78125 0l0 -14.171875l2.78125 0l0 6.34375zm8.082489 2.71875q0 -2.28125 0.65625 -4.390625q0.671875 -2.125 2.078125 -3.828125l2.28125 0q-1.265625 1.765625 -1.9375 3.875q-0.65625 2.109375 -0.65625 4.328125q0 2.15625 0.65625 4.265625q0.671875 2.09375 1.921875 3.8125l-2.265625 0q-1.40625 -1.640625 -2.078125 -3.71875q-0.65625 -2.09375 -0.65625 -4.34375zm11.152588 0q0 2.25 -0.671875 4.34375q-0.65625 2.078125 -2.078125 3.71875l-2.25 0q1.265625 -1.71875 1.921875 -3.8125q0.65625 -2.109375 0.65625 -4.265625q0 -2.21875 -0.671875 -4.328125q-0.65625 -2.109375 -1.921875 -3.875l2.265625 0q1.421875 1.703125 2.078125 3.828125q0.671875 2.109375 0.671875 4.390625z" fill-rule="nonzero"/><g filter="url(#shadowFilter-p.4)"><use xlink:href="#p.4" transform="matrix(1.0 0.0 0.0 1.0 3.9363538057742633 4.528257742782148)"/></g><defs><filter id="shadowFilter-p.4" filterUnits="userSpaceOnUse"><feGaussianBlur in="SourceAlpha" stdDeviation="3.0" result="blur"/><feComponentTransfer in="blur" color-interpolation-filters="sRGB"><feFuncR type="linear" slope="0" intercept="0.4"/><feFuncG type="linear" slope="0" intercept="0.4"/><feFuncB type="linear" slope="0" intercept="0.4"/><feFuncA type="linear" slope="0.5" intercept="0"/></feComponentTransfer></filter></defs><g id="p.4"><path fill="#000000" fill-opacity="0.0" d="m410.6929 207.15486l-179.59055 39.055115" fill-rule="evenodd"/><path stroke="#666666" stroke-width="3.0" stroke-linejoin="round" stroke-linecap="butt" d="m410.6929 207.15486l-169.5441 36.870346" fill-rule="evenodd"/><path fill="#666666" stroke="#666666" stroke-width="3.0" stroke-linecap="butt" d="m241.1488 244.02519l2.579773 -4.013611l-8.340668 5.2664337l9.774521 1.3269501z" fill-rule="evenodd"/></g><g filter="url(#shadowFilter-p.5)"><use xlink:href="#p.5" transform="matrix(1.0 0.0 0.0 1.0 3.9363538057743015 4.528257742782148)"/></g><defs><filter id="shadowFilter-p.5" filterUnits="userSpaceOnUse"><feGaussianBlur in="SourceAlpha" stdDeviation="3.0" result="blur"/><feComponentTransfer in="blur" color-interpolation-filters="sRGB"><feFuncR type="linear" slope="0" intercept="0.4"/><feFuncG type="linear" slope="0" intercept="0.4"/><feFuncB type="linear" slope="0" intercept="0.4"/><feFuncA type="linear" slope="0.5" intercept="0"/></feComponentTransfer></filter></defs><g id="p.5"><path fill="#000000" fill-opacity="0.0" d="m572.8189 276.6719l156.09448 -30.45668" fill-rule="evenodd"/><path stroke="#666666" stroke-width="3.0" stroke-linejoin="round" stroke-linecap="butt" d="m572.8189 276.6719l146.00354 -28.487762" fill-rule="evenodd"/><path fill="#666666" stroke="#666666" stroke-width="3.0" stroke-linecap="butt" d="m718.8224 248.18414l-2.6651611 3.9573975l8.451599 -5.086426l-9.743835 -1.5361938z" fill-rule="evenodd"/></g><g filter="url(#shadowFilter-p.6)"><use xlink:href="#p.6" transform="matrix(1.0 0.0 0.0 1.0 3.9363538057743015 4.528257742782186)"/></g><defs><filter id="shadowFilter-p.6" filterUnits="userSpaceOnUse"><feGaussianBlur in="SourceAlpha" stdDeviation="3.0" result="blur"/><feComponentTransfer in="blur" color-interpolation-filters="sRGB"><feFuncR type="linear" slope="0" intercept="0.4"/><feFuncG type="linear" slope="0" intercept="0.4"/><feFuncB type="linear" slope="0" intercept="0.4"/><feFuncA type="linear" slope="0.5" intercept="0"/></feComponentTransfer></filter></defs><g id="p.6"><path fill="#000000" fill-opacity="0.0" d="m728.9055 379.2126l-179.59058 37.165375" fill-rule="evenodd"/><path stroke="#666666" stroke-width="3.0" stroke-linejoin="round" stroke-linecap="butt" d="m728.9055 379.2126l-169.52258 35.08188" fill-rule="evenodd"/><path fill="#666666" stroke="#666666" stroke-width="3.0" stroke-linecap="butt" d="m559.3829 414.29443l2.6200562 -3.9874268l-8.3932495 5.18219l9.760681 1.425293z" fill-rule="evenodd"/></g><g filter="url(#shadowFilter-p.7)"><use xlink:href="#p.7" transform="matrix(1.0 0.0 0.0 1.0 3.9363538057742633 4.528257742782186)"/></g><defs><filter id="shadowFilter-p.7" filterUnits="userSpaceOnUse"><feGaussianBlur in="SourceAlpha" stdDeviation="3.0" result="blur"/><feComponentTransfer in="blur" color-interpolation-filters="sRGB"><feFuncR type="linear" slope="0" intercept="0.4"/><feFuncG type="linear" slope="0" intercept="0.4"/><feFuncB type="linear" slope="0" intercept="0.4"/><feFuncA type="linear" slope="0.5" intercept="0"/></feComponentTransfer></filter></defs><g id="p.7"><path fill="#000000" fill-opacity="0.0" d="m231.09448 379.2126l156.09448 -32.346436" fill-rule="evenodd"/><path stroke="#666666" stroke-width="3.0" stroke-linejoin="round" stroke-linecap="butt" d="m231.09448 379.2126l146.0271 -30.260254" fill-rule="evenodd"/><path fill="#666666" stroke="#666666" stroke-width="3.0" stroke-linecap="butt" d="m377.1216 348.95233l-2.618988 3.9881592l8.391876 -5.1844482l-9.761047 -1.422699z" fill-rule="evenodd"/></g><path fill="#000000" fill-opacity="0.0" d="m112.92913 0l734.1417 0l0 77.57481l-734.1417 0z" fill-rule="evenodd"/><path fill="#000000" d="m229.66165 55.079998l-7.25 0l0 -14.78125l-13.59375 0l0 14.78125l-7.25 0l0 -34.265625l7.25 0l0 13.4375l13.59375 0l0 -13.4375l7.25 0l0 34.265625zm31.860687 -13.15625q0 6.53125 -3.4375 10.09375q-3.4218597 3.546875 -9.32811 3.546875q-3.640625 0 -6.5 -1.578125q-2.859375 -1.59375 -4.5 -4.640625q-1.625 -3.046875 -1.625 -7.421875q0 -6.53125 3.40625 -10.03125q3.40625 -3.5 9.359375 -3.5q3.703125 0 6.53125 1.59375q2.8281097 1.578125 4.4531097 4.578125q1.640625 3.0 1.640625 7.359375zm-18.093735 0q0 3.890625 1.265625 5.890625q1.28125 1.984375 4.15625 1.984375q2.84375 0 4.109375 -1.984375q1.265625 -2.0 1.265625 -5.890625q0 -3.890625 -1.265625 -5.828125q-1.265625 -1.9375 -4.15625 -1.9375q-2.828125 0 -4.109375 1.9375q-1.265625 1.9375 -1.265625 5.828125zm42.580185 3.984375q-0.1875 -0.8125 -0.546875 -2.421875q-0.359375 -1.609375 -0.796875 -3.453125q-0.4375 -1.84375 -0.828125 -3.40625q-0.375 -1.5625 -0.515625 -2.28125l-0.1875 0q-0.15625 0.71875 -0.515625 2.28125q-0.359375 1.5625 -0.796875 3.40625q-0.421875 1.84375 -0.8125 3.484375q-0.375 1.625 -0.5625 2.484375l-2.125 9.078125l-7.671875 0l-7.4375 -26.203125l7.09375 0l3.03125 11.609375q0.328125 1.203125 0.59375 2.890625q0.265625 1.671875 0.5 3.234375q0.25 1.5625 0.34375 2.46875l0.1875 0q0.046875 -0.671875 0.1875 -1.796875q0.15625 -1.125 0.375 -2.328125q0.21875 -1.203125 0.375 -2.1875q0.171875 -0.984375 0.265625 -1.3125l3.21875 -12.578125l7.875 0l3.0625 12.578125q0.203125 0.671875 0.453125 2.15625q0.265625 1.484375 0.484375 3.03125q0.21875 1.53125 0.21875 2.4375l0.1875 0q0.109375 -0.8125 0.34375 -2.375q0.234375 -1.5625 0.546875 -3.28125q0.3125 -1.734375 0.65625 -2.9375l3.109375 -11.609375l7.015625 0l-7.53125 26.203125l-7.78125 0l-2.015625 -9.171875zm63.02124 -8.296875q0 8.6875 -4.921875 13.078125q-4.921875 4.390625 -13.796875 4.390625l-9.703125 0l0 -34.265625l10.765625 0q5.375 0 9.328125 1.921875q3.96875 1.90625 6.140625 5.640625q2.1875 3.71875 2.1875 9.234375zm-7.53125 0.1875q0 -5.703125 -2.5 -8.359375q-2.5 -2.671875 -7.25 -2.671875l-3.890625 0l0 22.3125l3.125 0q10.515625 0 10.515625 -11.28125zm37.86383 4.125q0 6.53125 -3.4375 10.09375q-3.421875 3.546875 -9.3281555 3.546875q-3.640625 0 -6.5 -1.578125q-2.859375 -1.59375 -4.5 -4.640625q-1.625 -3.046875 -1.625 -7.421875q0 -6.53125 3.40625 -10.03125q3.40625 -3.5 9.359375 -3.5q3.7031555 0 6.5312805 1.59375q2.828125 1.578125 4.453125 4.578125q1.640625 3.0 1.640625 7.359375zm-18.09378 0q0 3.890625 1.265625 5.890625q1.28125 1.984375 4.15625 1.984375q2.8437805 0 4.1094055 -1.984375q1.265625 -2.0 1.265625 -5.890625q0 -3.890625 -1.265625 -5.828125q-1.265625 -1.9375 -4.1562805 -1.9375q-2.828125 0 -4.109375 1.9375q-1.265625 1.9375 -1.265625 5.828125zm34.805817 -13.53125q5.421875 0 8.578125 3.09375q3.171875 3.09375 3.171875 8.8125l0 3.453125l-16.890625 0q0.09375 3.03125 1.796875 4.765625q1.703125 1.71875 4.734375 1.71875q2.546875 0 4.609375 -0.5q2.0625 -0.515625 4.265625 -1.5625l0 5.515625q-1.921875 0.953125 -4.0625 1.40625q-2.125 0.46875 -5.15625 0.46875q-3.9375 0 -6.96875 -1.46875q-3.015625 -1.46875 -4.75 -4.4375q-1.71875 -2.984375 -1.71875 -7.484375q0 -4.609375 1.5625 -7.65625q1.5625 -3.046875 4.34375 -4.578125q2.78125 -1.546875 6.484375 -1.546875zm0.046875 5.09375q-2.0625 0 -3.4375 1.34375q-1.359375 1.34375 -1.609375 4.171875l10.03125 0q-0.046875 -2.40625 -1.25 -3.953125q-1.1875 -1.5625 -3.734375 -1.5625zm35.805573 13.8125q0 3.984375 -2.8125 6.125q-2.796875 2.140625 -8.375 2.140625q-2.734375 0 -4.703125 -0.359375q-1.96875 -0.359375 -3.9375 -1.1875l0 -5.890625q2.109375 0.953125 4.5625 1.578125q2.453125 0.625 4.328125 0.625q2.109375 0 2.984375 -0.625q0.890625 -0.625 0.890625 -1.640625q0 -0.671875 -0.359375 -1.1875q-0.359375 -0.53125 -1.5625 -1.203125q-1.1875 -0.671875 -3.734375 -1.734375q-2.453125 -1.046875 -4.03125 -2.078125q-1.578125 -1.03125 -2.359375 -2.5q-0.765625 -1.46875 -0.765625 -3.671875q0 -3.65625 2.828125 -5.46875q2.84375 -1.828125 7.546875 -1.828125q2.4375 0 4.640625 0.484375q2.21875 0.46875 4.578125 1.578125l-2.171875 5.140625q-1.921875 -0.8125 -3.65625 -1.359375q-1.71875 -0.5625 -3.484375 -0.5625q-3.171875 0 -3.171875 1.71875q0 0.625 0.40625 1.140625q0.40625 0.5 1.578125 1.078125q1.1875 0.578125 3.484375 1.53125q2.25 0.90625 3.875 1.890625q1.640625 0.984375 2.53125 2.453125q0.890625 1.46875 0.890625 3.8125zm32.64859 -18.90625q4.40625 0 7.140625 3.4375q2.734375 3.421875 2.734375 10.09375q0 6.671875 -2.828125 10.15625q-2.828125 3.484375 -7.25 3.484375q-2.828125 0 -4.515625 -1.03125q-1.671875 -1.03125 -2.734375 -2.328125l-0.375 0q0.375 2.015625 0.375 3.828125l0 10.562504l-7.140625 0l0 -37.718754l5.796875 0l1.015625 3.40625l0.328125 0q1.0625 -1.59375 2.828125 -2.734375q1.78125 -1.15625 4.625 -1.15625zm-2.3125 5.71875q-2.78125 0 -3.921875 1.734375q-1.125 1.71875 -1.21875 5.265625l0 0.765625q0 3.796875 1.125 5.84375q1.140625 2.03125 4.109375 2.03125q2.453125 0 3.625 -2.03125q1.171875 -2.046875 1.171875 -5.890625q0 -7.71875 -4.890625 -7.71875zm21.696564 -15.515625q1.578125 0 2.734375 0.75q1.15625 0.75 1.15625 2.765625q0 1.953125 -1.15625 2.734375q-1.15625 0.765625 -2.734375 0.765625q-1.625 0 -2.765625 -0.765625q-1.125 -0.78125 -1.125 -2.734375q0 -2.015625 1.125 -2.765625q1.140625 -0.75 2.765625 -0.75zm3.546875 10.28125l0 26.203125l-7.140625 0l0 -26.203125l7.140625 0zm22.09314 -0.484375q4.4062195 0 7.1405945 3.4375q2.734375 3.421875 2.734375 10.09375q0 6.671875 -2.828125 10.15625q-2.828125 3.484375 -7.2499695 3.484375q-2.828125 0 -4.515625 -1.03125q-1.671875 -1.03125 -2.734375 -2.328125l-0.375 0q0.375 2.015625 0.375 3.828125l0 10.562504l-7.140625 0l0 -37.718754l5.796875 0l1.015625 3.40625l0.328125 0q1.0625 -1.59375 2.828125 -2.734375q1.78125 -1.15625 4.625 -1.15625zm-2.3125 5.71875q-2.78125 0 -3.921875 1.734375q-1.125 1.71875 -1.21875 5.265625l0 0.765625q0 3.796875 1.125 5.84375q1.140625 2.03125 4.109375 2.03125q2.453125 0 3.625 -2.03125q1.1718445 -2.046875 1.1718445 -5.890625q0 -7.71875 -4.8905945 -7.71875zm28.899689 -5.71875q5.421875 0 8.578125 3.09375q3.171875 3.09375 3.171875 8.8125l0 3.453125l-16.890625 0q0.09375 3.03125 1.796875 4.765625q1.703125 1.71875 4.734375 1.71875q2.546875 0 4.609375 -0.5q2.0625 -0.515625 4.265625 -1.5625l0 5.515625q-1.921875 0.953125 -4.0625 1.40625q-2.125 0.46875 -5.15625 0.46875q-3.9375 0 -6.96875 -1.46875q-3.015625 -1.46875 -4.75 -4.4375q-1.71875 -2.984375 -1.71875 -7.484375q0 -4.609375 1.5625 -7.65625q1.5625 -3.046875 4.34375 -4.578125q2.78125 -1.546875 6.484375 -1.546875zm0.046875 5.09375q-2.0625 0 -3.4375 1.34375q-1.359375 1.34375 -1.609375 4.171875l10.03125 0q-0.046875 -2.40625 -1.25 -3.953125q-1.1875 -1.5625 -3.734375 -1.5625zm21.93927 8.203125l-8.453125 -12.8125l8.109375 0l5.09375 8.34375l5.140625 -8.34375l8.109375 0l-8.546875 12.8125l8.921875 13.390625l-8.109375 0l-5.515625 -8.96875l-5.515625 8.96875l-8.125 0l8.890625 -13.390625zm77.520935 -20.875l-8.734375 34.265625l-8.265625 0l-4.65625 -18.0q-0.140625 -0.53125 -0.359375 -1.578125q-0.21875 -1.0625 -0.484375 -2.3125q-0.265625 -1.25 -0.453125 -2.375q-0.1875 -1.125 -0.28125 -1.75q-0.046875 0.625 -0.265625 1.75q-0.21875 1.125 -0.46875 2.359375q-0.234375 1.21875 -0.46875 2.296875q-0.234375 1.078125 -0.390625 1.65625l-4.609375 17.953125l-8.25 0l-8.734375 -34.265625l7.15625 0l4.359375 18.71875q0.296875 1.09375 0.625 2.78125q0.34375 1.671875 0.625 3.359375q0.296875 1.671875 0.4375 2.828125q0.140625 -1.203125 0.421875 -2.859375q0.296875 -1.65625 0.609375 -3.203125q0.3125 -1.5625 0.546875 -2.4375l5.0 -19.1875l6.859375 0l4.984375 19.1875q0.25 0.828125 0.5625 2.40625q0.3125 1.578125 0.59375 3.265625q0.296875 1.671875 0.4375 2.828125q0.140625 -1.203125 0.421875 -2.859375q0.296875 -1.65625 0.65625 -3.328125q0.359375 -1.6875 0.59375 -2.78125l4.375 -18.71875l7.15625 0zm26.581116 21.109375q0 6.53125 -3.4375 10.09375q-3.421875 3.546875 -9.328125 3.546875q-3.640625 0 -6.5 -1.578125q-2.859375 -1.59375 -4.5 -4.640625q-1.625 -3.046875 -1.625 -7.421875q0 -6.53125 3.40625 -10.03125q3.40625 -3.5 9.359375 -3.5q3.703125 0 6.53125 1.59375q2.828125 1.578125 4.453125 4.578125q1.640625 3.0 1.640625 7.359375zm-18.09375 0q0 3.890625 1.265625 5.890625q1.28125 1.984375 4.15625 1.984375q2.84375 0 4.109375 -1.984375q1.265625 -2.0 1.265625 -5.890625q0 -3.890625 -1.265625 -5.828125q-1.265625 -1.9375 -4.15625 -1.9375q-2.828125 0 -4.109375 1.9375q-1.265625 1.9375 -1.265625 5.828125zm38.649597 -13.53125q0.515625 0 1.234375 0.046875q0.734375 0.046875 1.15625 0.140625l-0.53125 6.71875q-0.328125 -0.09375 -0.984375 -0.15625q-0.640625 -0.078125 -1.125 -0.078125q-1.828125 0 -3.515625 0.65625q-1.671875 0.640625 -2.703125 2.078125q-1.03125 1.4375 -1.03125 3.9375l0 13.34375l-7.140625 0l0 -26.203125l5.421875 0l1.046875 4.40625l0.34375 0q1.15625 -2.015625 3.171875 -3.453125q2.015625 -1.4375 4.65625 -1.4375zm14.291992 6.53125q0 1.484375 -0.125 2.953125q-0.109375 1.453125 -0.25 2.953125l0.09375 0q0.71875 -1.015625 1.484375 -2.046875q0.765625 -1.03125 1.640625 -1.9375l7.34375 -7.96875l8.0625 0l-10.421875 11.375l11.046875 14.828125l-8.265625 0l-7.53125 -10.609375l-3.078125 2.453125l0 8.15625l-7.140625 0l0 -36.484375l7.140625 0l0 16.328125zm40.900757 12.375q0 3.984375 -2.8125 6.125q-2.796875 2.140625 -8.375 2.140625q-2.734375 0 -4.703125 -0.359375q-1.96875 -0.359375 -3.9375 -1.1875l0 -5.890625q2.109375 0.953125 4.5625 1.578125q2.453125 0.625 4.328125 0.625q2.109375 0 2.984375 -0.625q0.890625 -0.625 0.890625 -1.640625q0 -0.671875 -0.359375 -1.1875q-0.359375 -0.53125 -1.5625 -1.203125q-1.1875 -0.671875 -3.734375 -1.734375q-2.453125 -1.046875 -4.03125 -2.078125q-1.578125 -1.03125 -2.359375 -2.5q-0.765625 -1.46875 -0.765625 -3.671875q0 -3.65625 2.828125 -5.46875q2.84375 -1.828125 7.546875 -1.828125q2.4375 0 4.640625 0.484375q2.21875 0.46875 4.578125 1.578125l-2.171875 5.140625q-1.921875 -0.8125 -3.65625 -1.359375q-1.71875 -0.5625 -3.484375 -0.5625q-3.171875 0 -3.171875 1.71875q0 0.625 0.40625 1.140625q0.40625 0.5 1.578125 1.078125q1.1875 0.578125 3.484375 1.53125q2.25 0.90625 3.875 1.890625q1.640625 0.984375 2.53125 2.453125q0.890625 1.46875 0.890625 3.8125zm8.309204 -5.328125q0 -2.390625 1.0 -4.015625q1.015625 -1.640625 3.453125 -3.421875q2.171875 -1.53125 3.09375 -2.65625q0.9375 -1.140625 0.9375 -2.671875q0 -1.53125 -1.125 -2.3125q-1.125 -0.796875 -3.140625 -0.796875q-2.015625 0 -3.984375 0.625q-1.96875 0.609375 -4.03125 1.671875l-2.546875 -5.140625q2.359375 -1.296875 5.09375 -2.109375q2.734375 -0.8125 6.0 -0.8125q4.984375 0 7.75 2.40625q2.765625 2.390625 2.765625 6.09375q0 1.96875 -0.625 3.40625q-0.625 1.4375 -1.875 2.671875q-1.25 1.21875 -3.125 2.609375q-1.390625 1.0 -2.15625 1.71875q-0.765625 0.71875 -1.03125 1.390625q-0.265625 0.671875 -0.265625 1.6875l0 1.390625l-6.1875 0l0 -1.734375zm-0.765625 9.75q0 -2.203125 1.1875 -3.09375q1.203125 -0.890625 2.9375 -0.890625q1.671875 0 2.875 0.890625q1.203125 0.890625 1.203125 3.09375q0 2.109375 -1.203125 3.046875q-1.203125 0.9375 -2.875 0.9375q-1.734375 0 -2.9375 -0.9375q-1.1875 -0.9375 -1.1875 -3.046875z" fill-rule="nonzero"/><g filter="url(#shadowFilter-p.8)"><use xlink:href="#p.8" transform="matrix(1.0 0.0 0.0 1.0 4.388122309711313 4.091990026246732)"/></g><defs><filter id="shadowFilter-p.8" filterUnits="userSpaceOnUse"><feGaussianBlur in="SourceAlpha" stdDeviation="3.0" result="blur"/><feComponentTransfer in="blur" color-interpolation-filters="sRGB"><feFuncR type="linear" slope="0" intercept="0.4"/><feFuncG type="linear" slope="0" intercept="0.4"/><feFuncB type="linear" slope="0" intercept="0.4"/><feFuncA type="linear" slope="0.67" intercept="0"/></feComponentTransfer></filter></defs><g id="p.8"><path fill="#ffffff" d="m387.1811 250.81364l185.63782 0l0 51.716537l-185.63782 0z" fill-rule="evenodd"/><path fill="#000000" d="m425.8529 270.5855q2.453125 0 3.96875 1.90625q1.515625 1.90625 1.515625 5.625q0 3.703125 -1.578125 5.640625q-1.5625 1.921875 -4.015625 1.921875q-1.578125 0 -2.515625 -0.5625q-0.921875 -0.578125 -1.515625 -1.296875l-0.203125 0q0.203125 1.109375 0.203125 2.125l0 5.859375l-3.96875 0l0 -20.9375l3.21875 0l0.5625 1.890625l0.1875 0q0.59375 -0.890625 1.578125 -1.53125q0.984375 -0.640625 2.5625 -0.640625zm-1.28125 3.171875q-1.546875 0 -2.171875 0.96875q-0.625 0.953125 -0.6875 2.9375l0 0.421875q0 2.109375 0.625 3.25q0.625 1.125 2.28125 1.125q1.359375 0 2.015625 -1.125q0.65625 -1.140625 0.65625 -3.28125q0 -4.296875 -2.71875 -4.296875zm12.045197 -8.609375q0.875 0 1.515625 0.421875q0.640625 0.40625 0.640625 1.53125q0 1.09375 -0.640625 1.53125q-0.640625 0.421875 -1.515625 0.421875q-0.90625 0 -1.53125 -0.421875q-0.625 -0.4375 -0.625 -1.53125q0 -1.125 0.625 -1.53125q0.625 -0.421875 1.53125 -0.421875zm1.96875 5.71875l0 14.546875l-3.96875 0l0 -14.546875l3.96875 0zm12.270752 -0.28125q2.453125 0 3.96875 1.90625q1.515625 1.90625 1.515625 5.625q0 3.703125 -1.578125 5.640625q-1.5625 1.921875 -4.015625 1.921875q-1.578125 0 -2.515625 -0.5625q-0.921875 -0.578125 -1.515625 -1.296875l-0.203125 0q0.203125 1.109375 0.203125 2.125l0 5.859375l-3.96875 0l0 -20.9375l3.21875 0l0.5625 1.890625l0.1875 0q0.59375 -0.890625 1.578125 -1.53125q0.984375 -0.640625 2.5625 -0.640625zm-1.28125 3.171875q-1.546875 0 -2.171875 0.96875q-0.625 0.953125 -0.6875 2.9375l0 0.421875q0 2.109375 0.625 3.25q0.625 1.125 2.28125 1.125q1.359375 0 2.015625 -1.125q0.65625 -1.140625 0.65625 -3.28125q0 -4.296875 -2.71875 -4.296875zm16.045227 -3.171875q3.015625 0 4.765625 1.734375q1.765625 1.71875 1.765625 4.890625l0 1.90625l-9.390625 0q0.0625 1.6875 1.0 2.65625q0.953125 0.953125 2.625 0.953125q1.421875 0 2.5625 -0.28125q1.15625 -0.28125 2.375 -0.875l0 3.078125q-1.0625 0.53125 -2.25 0.78125q-1.1875 0.25 -2.875 0.25q-2.171875 0 -3.859375 -0.8125q-1.671875 -0.8125 -2.640625 -2.46875q-0.953125 -1.65625 -0.953125 -4.15625q0 -2.5625 0.859375 -4.25q0.875 -1.6875 2.421875 -2.546875q1.546875 -0.859375 3.59375 -0.859375zm0.03125 2.828125q-1.15625 0 -1.921875 0.75q-0.75 0.75 -0.890625 2.3125l5.578125 0q-0.03125 -1.328125 -0.703125 -2.1875q-0.65625 -0.875 -2.0625 -0.875zm18.660034 16.21875l-11.0625 0l0 -1.8125l11.0625 0l0 1.8125zm10.065033 -15.78125l-3.4375 0l0 11.5625l-3.96875 0l0 -11.5625l-2.1875 0l0 -1.921875l2.1875 -1.0625l0 -1.078125q0 -1.859375 0.625 -2.875q0.625 -1.03125 1.78125 -1.453125q1.171875 -0.4375 2.734375 -0.4375q1.171875 0 2.109375 0.1875q0.953125 0.1875 1.546875 0.421875l-1.015625 2.90625q-0.453125 -0.125 -0.984375 -0.25q-0.53125 -0.125 -1.21875 -0.125q-0.828125 0 -1.21875 0.515625q-0.390625 0.5 -0.390625 1.28125l0 0.90625l3.4375 0l0 2.984375zm6.8784485 11.828125q-2.421875 0 -3.953125 -1.90625q-1.53125 -1.90625 -1.53125 -5.609375q0 -3.734375 1.546875 -5.65625q1.546875 -1.921875 4.046875 -1.921875q1.578125 0 2.578125 0.625q1.015625 0.609375 1.609375 1.515625l0.125 0q-0.078125 -0.421875 -0.1875 -1.234375q-0.09375 -0.8125 -0.09375 -1.671875l0 -4.671875l3.96875 0l0 20.265625l-3.046875 0l-0.765625 -1.890625l-0.15625 0q-0.59375 0.90625 -1.578125 1.53125q-0.984375 0.625 -2.5625 0.625zm1.390625 -3.171875q1.65625 0 2.3125 -0.96875q0.671875 -0.96875 0.703125 -2.921875l0 -0.421875q0 -2.140625 -0.65625 -3.25q-0.65625 -1.125 -2.40625 -1.125q-1.3125 0 -2.0625 1.140625q-0.75 1.125 -0.75 3.25q0 2.140625 0.75 3.21875q0.75 1.078125 2.109375 1.078125zm16.951447 7.125l-6.296875 0l0 -23.25l6.296875 0l0 2.75l-2.90625 0l0 17.75l2.90625 0l0 2.75zm14.932556 -13.734375q0 3.0625 -0.65625 5.25q-0.65625 2.1875 -2.109375 3.359375q-1.453125 1.171875 -3.90625 1.171875q-3.4375 0 -5.046875 -2.59375q-1.59375 -2.609375 -1.59375 -7.1875q0 -3.09375 0.640625 -5.28125q0.640625 -2.1875 2.109375 -3.359375q1.46875 -1.171875 3.890625 -1.171875q3.421875 0 5.046875 2.59375q1.625 2.578125 1.625 7.21875zm-9.3125 0q0 3.25 0.5625 4.890625q0.5625 1.640625 2.078125 1.640625q1.5 0 2.078125 -1.625q0.59375 -1.625 0.59375 -4.90625q0 -3.25 -0.59375 -4.90625q-0.578125 -1.65625 -2.078125 -1.65625q-1.515625 0 -2.078125 1.65625q-0.5625 1.65625 -0.5625 4.90625zm10.966064 10.984375l2.90625 0l0 -17.75l-2.90625 0l0 -2.75l6.28125 0l0 23.25l-6.28125 0l0 -2.75z" fill-rule="nonzero"/></g><g filter="url(#shadowFilter-p.9)"><use xlink:href="#p.9" transform="matrix(1.0 0.0 0.0 1.0 4.388122309711313 4.091990026246694)"/></g><defs><filter id="shadowFilter-p.9" filterUnits="userSpaceOnUse"><feGaussianBlur in="SourceAlpha" stdDeviation="3.0" result="blur"/><feComponentTransfer in="blur" color-interpolation-filters="sRGB"><feFuncR type="linear" slope="0" intercept="0.4"/><feFuncG type="linear" slope="0" intercept="0.4"/><feFuncB type="linear" slope="0" intercept="0.4"/><feFuncA type="linear" slope="0.67" intercept="0"/></feComponentTransfer></filter></defs><g id="p.9"><path fill="#ffffff" d="m387.1811 321.00787l185.63782 0l0 51.716522l-185.63782 0z" fill-rule="evenodd"/><path fill="#000000" d="m425.8529 340.77975q2.453125 0 3.96875 1.90625q1.515625 1.90625 1.515625 5.625q0 3.703125 -1.578125 5.640625q-1.5625 1.921875 -4.015625 1.921875q-1.578125 0 -2.515625 -0.5625q-0.921875 -0.578125 -1.515625 -1.296875l-0.203125 0q0.203125 1.109375 0.203125 2.125l0 5.859375l-3.96875 0l0 -20.9375l3.21875 0l0.5625 1.890625l0.1875 0q0.59375 -0.890625 1.578125 -1.53125q0.984375 -0.640625 2.5625 -0.640625zm-1.28125 3.171875q-1.546875 0 -2.171875 0.96875q-0.625 0.953125 -0.6875 2.9375l0 0.421875q0 2.109375 0.625 3.25q0.625 1.125 2.28125 1.125q1.359375 0 2.015625 -1.125q0.65625 -1.140625 0.65625 -3.28125q0 -4.296875 -2.71875 -4.296875zm12.045197 -8.609375q0.875 0 1.515625 0.421875q0.640625 0.40625 0.640625 1.53125q0 1.09375 -0.640625 1.53125q-0.640625 0.421875 -1.515625 0.421875q-0.90625 0 -1.53125 -0.421875q-0.625 -0.4375 -0.625 -1.53125q0 -1.125 0.625 -1.53125q0.625 -0.421875 1.53125 -0.421875zm1.96875 5.71875l0 14.546875l-3.96875 0l0 -14.546875l3.96875 0zm12.270752 -0.28125q2.453125 0 3.96875 1.90625q1.515625 1.90625 1.515625 5.625q0 3.703125 -1.578125 5.640625q-1.5625 1.921875 -4.015625 1.921875q-1.578125 0 -2.515625 -0.5625q-0.921875 -0.578125 -1.515625 -1.296875l-0.203125 0q0.203125 1.109375 0.203125 2.125l0 5.859375l-3.96875 0l0 -20.9375l3.21875 0l0.5625 1.890625l0.1875 0q0.59375 -0.890625 1.578125 -1.53125q0.984375 -0.640625 2.5625 -0.640625zm-1.28125 3.171875q-1.546875 0 -2.171875 0.96875q-0.625 0.953125 -0.6875 2.9375l0 0.421875q0 2.109375 0.625 3.25q0.625 1.125 2.28125 1.125q1.359375 0 2.015625 -1.125q0.65625 -1.140625 0.65625 -3.28125q0 -4.296875 -2.71875 -4.296875zm16.045227 -3.171875q3.015625 0 4.765625 1.734375q1.765625 1.71875 1.765625 4.890625l0 1.90625l-9.390625 0q0.0625 1.6875 1.0 2.65625q0.953125 0.953125 2.625 0.953125q1.421875 0 2.5625 -0.28125q1.15625 -0.28125 2.375 -0.875l0 3.078125q-1.0625 0.53125 -2.25 0.78125q-1.1875 0.25 -2.875 0.25q-2.171875 0 -3.859375 -0.8125q-1.671875 -0.8125 -2.640625 -2.46875q-0.953125 -1.65625 -0.953125 -4.15625q0 -2.5625 0.859375 -4.25q0.875 -1.6875 2.421875 -2.546875q1.546875 -0.859375 3.59375 -0.859375zm0.03125 2.828125q-1.15625 0 -1.921875 0.75q-0.75 0.75 -0.890625 2.3125l5.578125 0q-0.03125 -1.328125 -0.703125 -2.1875q-0.65625 -0.875 -2.0625 -0.875zm18.660034 16.21875l-11.0625 0l0 -1.8125l11.0625 0l0 1.8125zm10.065033 -15.78125l-3.4375 0l0 11.5625l-3.96875 0l0 -11.5625l-2.1875 0l0 -1.921875l2.1875 -1.0625l0 -1.078125q0 -1.859375 0.625 -2.875q0.625 -1.03125 1.78125 -1.453125q1.171875 -0.4375 2.734375 -0.4375q1.171875 0 2.109375 0.1875q0.953125 0.1875 1.546875 0.421875l-1.015625 2.90625q-0.453125 -0.125 -0.984375 -0.25q-0.53125 -0.125 -1.21875 -0.125q-0.828125 0 -1.21875 0.515625q-0.390625 0.5 -0.390625 1.28125l0 0.90625l3.4375 0l0 2.984375zm6.8784485 11.828125q-2.421875 0 -3.953125 -1.90625q-1.53125 -1.90625 -1.53125 -5.609375q0 -3.734375 1.546875 -5.65625q1.546875 -1.921875 4.046875 -1.921875q1.578125 0 2.578125 0.625q1.015625 0.609375 1.609375 1.515625l0.125 0q-0.078125 -0.421875 -0.1875 -1.234375q-0.09375 -0.8125 -0.09375 -1.671875l0 -4.671875l3.96875 0l0 20.265625l-3.046875 0l-0.765625 -1.890625l-0.15625 0q-0.59375 0.90625 -1.578125 1.53125q-0.984375 0.625 -2.5625 0.625zm1.390625 -3.171875q1.65625 0 2.3125 -0.96875q0.671875 -0.96875 0.703125 -2.921875l0 -0.421875q0 -2.140625 -0.65625 -3.25q-0.65625 -1.125 -2.40625 -1.125q-1.3125 0 -2.0625 1.140625q-0.75 1.125 -0.75 3.25q0 2.140625 0.75 3.21875q0.75 1.078125 2.109375 1.078125zm16.951447 7.125l-6.296875 0l0 -23.25l6.296875 0l0 2.75l-2.90625 0l0 17.75l2.90625 0l0 2.75zm11.682556 -4.21875l-4.03125 0l0 -11.015625q0 -0.6875 0.03125 -1.796875q0.046875 -1.125 0.078125 -1.984375q-0.140625 0.15625 -0.578125 0.578125q-0.4375 0.40625 -0.8125 0.734375l-2.1875 1.75l-1.9375 -2.421875l6.125 -4.875l3.3125 0l0 19.03125zm4.9035645 1.46875l2.90625 0l0 -17.75l-2.90625 0l0 -2.75l6.28125 0l0 23.25l-6.28125 0l0 -2.75z" fill-rule="nonzero"/></g><g filter="url(#shadowFilter-p.10)"><use xlink:href="#p.10" transform="matrix(1.0 0.0 0.0 1.0 4.388122309711284 4.091990026246732)"/></g><defs><filter id="shadowFilter-p.10" filterUnits="userSpaceOnUse"><feGaussianBlur in="SourceAlpha" stdDeviation="3.0" result="blur"/><feComponentTransfer in="blur" color-interpolation-filters="sRGB"><feFuncR type="linear" slope="0" intercept="0.4"/><feFuncG type="linear" slope="0" intercept="0.4"/><feFuncB type="linear" slope="0" intercept="0.4"/><feFuncA type="linear" slope="0.67" intercept="0"/></feComponentTransfer></filter></defs><g id="p.10"><path fill="#ffffff" d="m53.677166 209.04462l177.41731 0l0 74.33072l-177.41731 0z" fill-rule="evenodd"/><path fill="#000000" d="m77.15123 236.15211q-2.265625 0 -3.515625 -1.25q-1.234375 -1.265625 -1.234375 -3.96875q0 -1.875 0.625 -3.046875q0.640625 -1.171875 1.765625 -1.734375q1.125 -0.5625 2.609375 -0.5625q1.046875 0 1.8125 0.203125q0.78125 0.203125 1.359375 0.484375l-0.828125 2.15625q-0.65625 -0.265625 -1.21875 -0.4375q-0.5625 -0.171875 -1.125 -0.171875q-2.171875 0 -2.171875 3.078125q0 1.53125 0.5625 2.265625q0.578125 0.71875 1.609375 0.71875q0.875 0 1.546875 -0.21875q0.671875 -0.234375 1.296875 -0.65625l0 2.375q-0.625 0.40625 -1.328125 0.578125q-0.703125 0.1875 -1.765625 0.1875zm8.229935 -11.46875q0 0.734375 -0.046875 1.4375q-0.046875 0.6875 -0.078125 0.96875l0.140625 0q0.484375 -0.78125 1.25 -1.140625q0.765625 -0.359375 1.703125 -0.359375q1.65625 0 2.65625 0.890625q1.0 0.890625 1.0 2.84375l0 6.640625l-2.78125 0l0 -5.953125q0 -2.203125 -1.640625 -2.203125q-1.25 0 -1.734375 0.875q-0.46875 0.859375 -0.46875 2.484375l0 4.796875l-2.78125 0l0 -14.171875l2.78125 0l0 2.890625zm10.882156 -2.890625q0.609375 0 1.046875 0.296875q0.453125 0.28125 0.453125 1.0625q0 0.765625 -0.453125 1.0625q-0.4375 0.296875 -1.046875 0.296875q-0.640625 0 -1.078125 -0.296875q-0.4375 -0.296875 -0.4375 -1.0625q0 -0.78125 0.4375 -1.0625q0.4375 -0.296875 1.078125 -0.296875zm1.375 3.984375l0 10.1875l-2.78125 0l0 -10.1875l2.78125 0zm5.690155 10.1875l-2.78125 0l0 -14.171875l2.78125 0l0 14.171875zm6.14328 0.1875q-1.703125 0 -2.78125 -1.328125q-1.0625 -1.34375 -1.0625 -3.9375q0 -2.609375 1.078125 -3.953125q1.078125 -1.34375 2.828125 -1.34375q1.109375 0 1.8125 0.4375q0.71875 0.421875 1.125 1.0625l0.09375 0q-0.0625 -0.296875 -0.140625 -0.859375q-0.0625 -0.578125 -0.0625 -1.171875l0 -3.265625l2.78125 0l0 14.171875l-2.125 0l-0.546875 -1.328125l-0.109375 0q-0.421875 0.640625 -1.109375 1.078125q-0.6875 0.4375 -1.78125 0.4375zm0.96875 -2.21875q1.15625 0 1.625 -0.671875q0.46875 -0.6875 0.484375 -2.046875l0 -0.3125q0 -1.484375 -0.46875 -2.265625q-0.453125 -0.78125 -1.6875 -0.78125q-0.90625 0 -1.4375 0.796875q-0.515625 0.78125 -0.515625 2.28125q0 1.484375 0.515625 2.25q0.53125 0.75 1.484375 0.75zm13.856277 4.984375l-7.734375 0l0 -1.28125l7.734375 0l0 1.28125zm7.0895996 -13.328125q1.71875 0 2.78125 1.34375q1.0625 1.328125 1.0625 3.921875q0 2.59375 -1.109375 3.953125q-1.09375 1.34375 -2.8125 1.34375q-1.09375 0 -1.75 -0.390625q-0.65625 -0.40625 -1.0625 -0.921875l-0.15625 0q0.15625 0.796875 0.15625 1.5l0 4.109375l-2.78125 0l0 -14.671875l2.265625 0l0.390625 1.328125l0.125 0q0.40625 -0.625 1.09375 -1.0625q0.703125 -0.453125 1.796875 -0.453125zm-0.890625 2.21875q-1.078125 0 -1.53125 0.671875q-0.4375 0.671875 -0.46875 2.0625l0 0.296875q0 1.46875 0.4375 2.265625q0.4375 0.78125 1.59375 0.78125q0.953125 0 1.40625 -0.78125q0.46875 -0.796875 0.46875 -2.296875q0 -3.0 -1.90625 -3.0zm12.715652 -2.21875q0.203125 0 0.484375 0.03125q0.28125 0.015625 0.453125 0.046875l-0.203125 2.609375q-0.125 -0.03125 -0.390625 -0.0625q-0.25 -0.03125 -0.4375 -0.03125q-0.703125 0 -1.359375 0.25q-0.65625 0.25 -1.0625 0.8125q-0.390625 0.5625 -0.390625 1.53125l0 5.1875l-2.78125 0l0 -10.1875l2.109375 0l0.40625 1.71875l0.140625 0q0.4375 -0.78125 1.21875 -1.34375q0.796875 -0.5625 1.8125 -0.5625zm11.659103 5.265625q0 2.53125 -1.328125 3.921875q-1.328125 1.375 -3.625 1.375q-1.421875 0 -2.53125 -0.609375q-1.109375 -0.625 -1.75 -1.8125q-0.625 -1.1875 -0.625 -2.875q0 -2.546875 1.3125 -3.90625q1.328125 -1.359375 3.640625 -1.359375q1.4375 0 2.53125 0.625q1.109375 0.609375 1.734375 1.78125q0.640625 1.15625 0.640625 2.859375zm-7.03125 0q0 1.515625 0.5 2.296875q0.5 0.765625 1.609375 0.765625q1.109375 0 1.59375 -0.765625q0.5 -0.78125 0.5 -2.296875q0 -1.515625 -0.5 -2.265625q-0.484375 -0.765625 -1.609375 -0.765625q-1.09375 0 -1.59375 0.765625q-0.5 0.75 -0.5 2.265625zm13.470093 5.296875q-2.265625 0 -3.515625 -1.25q-1.234375 -1.265625 -1.234375 -3.96875q0 -1.875 0.625 -3.046875q0.640625 -1.171875 1.765625 -1.734375q1.125 -0.5625 2.609375 -0.5625q1.046875 0 1.8125 0.203125q0.78125 0.203125 1.359375 0.484375l-0.828125 2.15625q-0.65625 -0.265625 -1.21875 -0.4375q-0.5625 -0.171875 -1.125 -0.171875q-2.171875 0 -2.171875 3.078125q0 1.53125 0.5625 2.265625q0.578125 0.71875 1.609375 0.71875q0.875 0 1.546875 -0.21875q0.671875 -0.234375 1.296875 -0.65625l0 2.375q-0.625 0.40625 -1.328125 0.578125q-0.703125 0.1875 -1.765625 0.1875zm9.65181 -10.5625q2.109375 0 3.328125 1.203125q1.234375 1.203125 1.234375 3.421875l0 1.34375l-6.5625 0q0.03125 1.171875 0.6875 1.84375q0.671875 0.671875 1.84375 0.671875q1.0 0 1.796875 -0.1875q0.796875 -0.203125 1.65625 -0.609375l0 2.140625q-0.734375 0.375 -1.578125 0.546875q-0.828125 0.1875 -2.0 0.1875q-1.53125 0 -2.703125 -0.5625q-1.171875 -0.578125 -1.84375 -1.734375q-0.671875 -1.15625 -0.671875 -2.90625q0 -1.796875 0.59375 -2.96875q0.609375 -1.1875 1.6875 -1.78125q1.09375 -0.609375 2.53125 -0.609375zm0.015625 1.984375q-0.796875 0 -1.328125 0.53125q-0.53125 0.515625 -0.625 1.609375l3.890625 0q-0.015625 -0.9375 -0.484375 -1.53125q-0.46875 -0.609375 -1.453125 -0.609375zm13.916473 5.375q0 1.546875 -1.09375 2.375q-1.09375 0.828125 -3.25 0.828125q-1.0625 0 -1.828125 -0.140625q-0.765625 -0.140625 -1.53125 -0.453125l0 -2.296875q0.8125 0.375 1.765625 0.625q0.953125 0.234375 1.6875 0.234375q0.8125 0 1.15625 -0.234375q0.359375 -0.25 0.359375 -0.640625q0 -0.265625 -0.140625 -0.46875q-0.140625 -0.203125 -0.609375 -0.46875q-0.46875 -0.265625 -1.453125 -0.671875q-0.953125 -0.40625 -1.578125 -0.8125q-0.609375 -0.40625 -0.90625 -0.96875q-0.296875 -0.5625 -0.296875 -1.421875q0 -1.421875 1.09375 -2.125q1.109375 -0.71875 2.9375 -0.71875q0.953125 0 1.796875 0.1875q0.859375 0.1875 1.78125 0.609375l-0.84375 2.0q-0.75 -0.3125 -1.421875 -0.53125q-0.671875 -0.21875 -1.359375 -0.21875q-1.234375 0 -1.234375 0.671875q0 0.25 0.15625 0.453125q0.171875 0.1875 0.625 0.421875q0.453125 0.21875 1.359375 0.59375q0.875 0.34375 1.5 0.734375q0.640625 0.375 0.984375 0.953125q0.34375 0.5625 0.34375 1.484375zm9.272156 0q0 1.546875 -1.09375 2.375q-1.09375 0.828125 -3.25 0.828125q-1.0625 0 -1.828125 -0.140625q-0.765625 -0.140625 -1.53125 -0.453125l0 -2.296875q0.8125 0.375 1.765625 0.625q0.953125 0.234375 1.6875 0.234375q0.8125 0 1.15625 -0.234375q0.359375 -0.25 0.359375 -0.640625q0 -0.265625 -0.140625 -0.46875q-0.140625 -0.203125 -0.609375 -0.46875q-0.46875 -0.265625 -1.453125 -0.671875q-0.953125 -0.40625 -1.578125 -0.8125q-0.609375 -0.40625 -0.90625 -0.96875q-0.296875 -0.5625 -0.296875 -1.421875q0 -1.421875 1.09375 -2.125q1.109375 -0.71875 2.9375 -0.71875q0.953125 0 1.796875 0.1875q0.859375 0.1875 1.78125 0.609375l-0.84375 2.0q-0.75 -0.3125 -1.421875 -0.53125q-0.671875 -0.21875 -1.359375 -0.21875q-1.234375 0 -1.234375 0.671875q0 0.25 0.15625 0.453125q0.171875 0.1875 0.625 0.421875q0.453125 0.21875 1.359375 0.59375q0.875 0.34375 1.5 0.734375q0.640625 0.375 0.984375 0.953125q0.34375 0.5625 0.34375 1.484375zm8.412781 5.96875l-7.734375 0l0 -1.28125l7.734375 0l0 1.28125zm7.6677246 -2.953125l-2.8125 0l0 -7.703125q0 -0.484375 0.015625 -1.265625q0.03125 -0.78125 0.0625 -1.390625q-0.09375 0.109375 -0.40625 0.40625q-0.3125 0.296875 -0.5625 0.515625l-1.53125 1.234375l-1.375 -1.703125l4.296875 -3.421875l2.3125 0l0 13.328125z" fill-rule="nonzero"/><path fill="#000000" d="m115.06697 260.76337q0 2.53125 -1.828125 4.046875q-1.828125 1.5 -5.1875 1.5q-3.015625 0 -5.390625 -1.140625l0 -3.765625q1.359375 0.59375 2.8125 1.09375q1.453125 0.484375 2.90625 0.484375q1.484375 0 2.109375 -0.578125q0.625 -0.578125 0.625 -1.453125q0 -0.71875 -0.5 -1.21875q-0.484375 -0.515625 -1.3125 -0.953125q-0.828125 -0.4375 -1.890625 -0.9375q-0.671875 -0.328125 -1.4375 -0.765625q-0.765625 -0.4375 -1.484375 -1.09375q-0.703125 -0.65625 -1.15625 -1.578125q-0.453125 -0.9375 -0.453125 -2.25q0 -2.5625 1.734375 -3.984375q1.734375 -1.421875 4.71875 -1.421875q1.5 0 2.84375 0.34375q1.34375 0.34375 2.8125 0.984375l-1.3125 3.140625q-1.3125 -0.53125 -2.359375 -0.8125q-1.03125 -0.296875 -2.125 -0.296875q-1.140625 0 -1.75 0.53125q-0.609375 0.53125 -0.609375 1.390625q0 1.0 0.90625 1.59375q0.90625 0.59375 2.6875 1.4375q1.46875 0.6875 2.484375 1.4375q1.03125 0.75 1.59375 1.765625q0.5625 1.015625 0.5625 2.5zm10.796921 5.28125l-4.03125 0l0 -15.671875l-5.171875 0l0 -3.359375l14.375 0l0 3.359375l-5.171875 0l0 15.671875zm23.871414 -9.703125q0 4.828125 -2.734375 7.265625q-2.71875 2.4375 -7.65625 2.4375l-5.375 0l0 -19.03125l5.96875 0q2.984375 0 5.171875 1.0625q2.203125 1.0625 3.40625 3.140625q1.21875 2.0625 1.21875 5.125zm-4.171875 0.109375q0 -3.171875 -1.390625 -4.65625q-1.390625 -1.484375 -4.03125 -1.484375l-2.15625 0l0 12.40625l1.734375 0q5.84375 0 5.84375 -6.265625zm15.24118 9.59375l-8.65625 0l0 -2.296875l2.3125 -1.0625l0 -12.3125l-2.3125 -1.0625l0 -2.296875l8.65625 0l0 2.296875l-2.3125 1.0625l0 12.3125l2.3125 1.0625l0 2.296875zm20.119247 0l-5.109375 0l-8.296875 -14.390625l-0.109375 0q0.0625 1.359375 0.125 2.71875q0.0625 1.359375 0.125 2.71875l0 8.953125l-3.59375 0l0 -19.03125l5.078125 0l8.265625 14.265625l0.078125 0q-0.015625 -1.34375 -0.078125 -2.640625q-0.046875 -1.3125 -0.109375 -2.609375l0 -9.015625l3.625 0l0 19.03125z" fill-rule="nonzero"/></g><g filter="url(#shadowFilter-p.11)"><use xlink:href="#p.11" transform="matrix(1.0 0.0 0.0 1.0 4.388122309711284 4.091990026246694)"/></g><defs><filter id="shadowFilter-p.11" filterUnits="userSpaceOnUse"><feGaussianBlur in="SourceAlpha" stdDeviation="3.0" result="blur"/><feComponentTransfer in="blur" color-interpolation-filters="sRGB"><feFuncR type="linear" slope="0" intercept="0.4"/><feFuncG type="linear" slope="0" intercept="0.4"/><feFuncB type="linear" slope="0" intercept="0.4"/><feFuncA type="linear" slope="0.67" intercept="0"/></feComponentTransfer></filter></defs><g id="p.11"><path fill="#ffffff" d="m53.677166 342.04724l177.41731 0l0 74.33072l-177.41731 0z" fill-rule="evenodd"/><path fill="#000000" d="m77.15123 369.15475q-2.265625 0 -3.515625 -1.25q-1.234375 -1.265625 -1.234375 -3.96875q0 -1.875 0.625 -3.046875q0.640625 -1.171875 1.765625 -1.734375q1.125 -0.5625 2.609375 -0.5625q1.046875 0 1.8125 0.203125q0.78125 0.203125 1.359375 0.484375l-0.828125 2.15625q-0.65625 -0.265625 -1.21875 -0.4375q-0.5625 -0.171875 -1.125 -0.171875q-2.171875 0 -2.171875 3.078125q0 1.53125 0.5625 2.265625q0.578125 0.71875 1.609375 0.71875q0.875 0 1.546875 -0.21875q0.671875 -0.234375 1.296875 -0.65625l0 2.375q-0.625 0.40625 -1.328125 0.578125q-0.703125 0.1875 -1.765625 0.1875zm8.229935 -11.46875q0 0.734375 -0.046875 1.4375q-0.046875 0.6875 -0.078125 0.96875l0.140625 0q0.484375 -0.78125 1.25 -1.140625q0.765625 -0.359375 1.703125 -0.359375q1.65625 0 2.65625 0.890625q1.0 0.890625 1.0 2.84375l0 6.640625l-2.78125 0l0 -5.953125q0 -2.203125 -1.640625 -2.203125q-1.25 0 -1.734375 0.875q-0.46875 0.859375 -0.46875 2.484375l0 4.796875l-2.78125 0l0 -14.171875l2.78125 0l0 2.890625zm10.882156 -2.890625q0.609375 0 1.046875 0.296875q0.453125 0.28125 0.453125 1.0625q0 0.765625 -0.453125 1.0625q-0.4375 0.296875 -1.046875 0.296875q-0.640625 0 -1.078125 -0.296875q-0.4375 -0.296875 -0.4375 -1.0625q0 -0.78125 0.4375 -1.0625q0.4375 -0.296875 1.078125 -0.296875zm1.375 3.984375l0 10.1875l-2.78125 0l0 -10.1875l2.78125 0zm5.690155 10.1875l-2.78125 0l0 -14.171875l2.78125 0l0 14.171875zm6.14328 0.1875q-1.703125 0 -2.78125 -1.328125q-1.0625 -1.34375 -1.0625 -3.9375q0 -2.609375 1.078125 -3.953125q1.078125 -1.34375 2.828125 -1.34375q1.109375 0 1.8125 0.4375q0.71875 0.421875 1.125 1.0625l0.09375 0q-0.0625 -0.296875 -0.140625 -0.859375q-0.0625 -0.578125 -0.0625 -1.171875l0 -3.265625l2.78125 0l0 14.171875l-2.125 0l-0.546875 -1.328125l-0.109375 0q-0.421875 0.640625 -1.109375 1.078125q-0.6875 0.4375 -1.78125 0.4375zm0.96875 -2.21875q1.15625 0 1.625 -0.671875q0.46875 -0.6875 0.484375 -2.046875l0 -0.3125q0 -1.484375 -0.46875 -2.265625q-0.453125 -0.78125 -1.6875 -0.78125q-0.90625 0 -1.4375 0.796875q-0.515625 0.78125 -0.515625 2.28125q0 1.484375 0.515625 2.25q0.53125 0.75 1.484375 0.75zm13.856277 4.984375l-7.734375 0l0 -1.28125l7.734375 0l0 1.28125zm7.0895996 -13.328125q1.71875 0 2.78125 1.34375q1.0625 1.328125 1.0625 3.921875q0 2.59375 -1.109375 3.953125q-1.09375 1.34375 -2.8125 1.34375q-1.09375 0 -1.75 -0.390625q-0.65625 -0.40625 -1.0625 -0.921875l-0.15625 0q0.15625 0.796875 0.15625 1.5l0 4.109375l-2.78125 0l0 -14.671875l2.265625 0l0.390625 1.328125l0.125 0q0.40625 -0.625 1.09375 -1.0625q0.703125 -0.453125 1.796875 -0.453125zm-0.890625 2.21875q-1.078125 0 -1.53125 0.671875q-0.4375 0.671875 -0.46875 2.0625l0 0.296875q0 1.46875 0.4375 2.265625q0.4375 0.78125 1.59375 0.78125q0.953125 0 1.40625 -0.78125q0.46875 -0.796875 0.46875 -2.296875q0 -3.0 -1.90625 -3.0zm12.715652 -2.21875q0.203125 0 0.484375 0.03125q0.28125 0.015625 0.453125 0.046875l-0.203125 2.609375q-0.125 -0.03125 -0.390625 -0.0625q-0.25 -0.03125 -0.4375 -0.03125q-0.703125 0 -1.359375 0.25q-0.65625 0.25 -1.0625 0.8125q-0.390625 0.5625 -0.390625 1.53125l0 5.1875l-2.78125 0l0 -10.1875l2.109375 0l0.40625 1.71875l0.140625 0q0.4375 -0.78125 1.21875 -1.34375q0.796875 -0.5625 1.8125 -0.5625zm11.659103 5.265625q0 2.53125 -1.328125 3.921875q-1.328125 1.375 -3.625 1.375q-1.421875 0 -2.53125 -0.609375q-1.109375 -0.625 -1.75 -1.8125q-0.625 -1.1875 -0.625 -2.875q0 -2.546875 1.3125 -3.90625q1.328125 -1.359375 3.640625 -1.359375q1.4375 0 2.53125 0.625q1.109375 0.609375 1.734375 1.78125q0.640625 1.15625 0.640625 2.859375zm-7.03125 0q0 1.515625 0.5 2.296875q0.5 0.765625 1.609375 0.765625q1.109375 0 1.59375 -0.765625q0.5 -0.78125 0.5 -2.296875q0 -1.515625 -0.5 -2.265625q-0.484375 -0.765625 -1.609375 -0.765625q-1.09375 0 -1.59375 0.765625q-0.5 0.75 -0.5 2.265625zm13.470093 5.296875q-2.265625 0 -3.515625 -1.25q-1.234375 -1.265625 -1.234375 -3.96875q0 -1.875 0.625 -3.046875q0.640625 -1.171875 1.765625 -1.734375q1.125 -0.5625 2.609375 -0.5625q1.046875 0 1.8125 0.203125q0.78125 0.203125 1.359375 0.484375l-0.828125 2.15625q-0.65625 -0.265625 -1.21875 -0.4375q-0.5625 -0.171875 -1.125 -0.171875q-2.171875 0 -2.171875 3.078125q0 1.53125 0.5625 2.265625q0.578125 0.71875 1.609375 0.71875q0.875 0 1.546875 -0.21875q0.671875 -0.234375 1.296875 -0.65625l0 2.375q-0.625 0.40625 -1.328125 0.578125q-0.703125 0.1875 -1.765625 0.1875zm9.65181 -10.5625q2.109375 0 3.328125 1.203125q1.234375 1.203125 1.234375 3.421875l0 1.34375l-6.5625 0q0.03125 1.171875 0.6875 1.84375q0.671875 0.671875 1.84375 0.671875q1.0 0 1.796875 -0.1875q0.796875 -0.203125 1.65625 -0.609375l0 2.140625q-0.734375 0.375 -1.578125 0.546875q-0.828125 0.1875 -2.0 0.1875q-1.53125 0 -2.703125 -0.5625q-1.171875 -0.578125 -1.84375 -1.734375q-0.671875 -1.15625 -0.671875 -2.90625q0 -1.796875 0.59375 -2.96875q0.609375 -1.1875 1.6875 -1.78125q1.09375 -0.609375 2.53125 -0.609375zm0.015625 1.984375q-0.796875 0 -1.328125 0.53125q-0.53125 0.515625 -0.625 1.609375l3.890625 0q-0.015625 -0.9375 -0.484375 -1.53125q-0.46875 -0.609375 -1.453125 -0.609375zm13.916473 5.375q0 1.546875 -1.09375 2.375q-1.09375 0.828125 -3.25 0.828125q-1.0625 0 -1.828125 -0.140625q-0.765625 -0.140625 -1.53125 -0.453125l0 -2.296875q0.8125 0.375 1.765625 0.625q0.953125 0.234375 1.6875 0.234375q0.8125 0 1.15625 -0.234375q0.359375 -0.25 0.359375 -0.640625q0 -0.265625 -0.140625 -0.46875q-0.140625 -0.203125 -0.609375 -0.46875q-0.46875 -0.265625 -1.453125 -0.671875q-0.953125 -0.40625 -1.578125 -0.8125q-0.609375 -0.40625 -0.90625 -0.96875q-0.296875 -0.5625 -0.296875 -1.421875q0 -1.421875 1.09375 -2.125q1.109375 -0.71875 2.9375 -0.71875q0.953125 0 1.796875 0.1875q0.859375 0.1875 1.78125 0.609375l-0.84375 2.0q-0.75 -0.3125 -1.421875 -0.53125q-0.671875 -0.21875 -1.359375 -0.21875q-1.234375 0 -1.234375 0.671875q0 0.25 0.15625 0.453125q0.171875 0.1875 0.625 0.421875q0.453125 0.21875 1.359375 0.59375q0.875 0.34375 1.5 0.734375q0.640625 0.375 0.984375 0.953125q0.34375 0.5625 0.34375 1.484375zm9.272156 0q0 1.546875 -1.09375 2.375q-1.09375 0.828125 -3.25 0.828125q-1.0625 0 -1.828125 -0.140625q-0.765625 -0.140625 -1.53125 -0.453125l0 -2.296875q0.8125 0.375 1.765625 0.625q0.953125 0.234375 1.6875 0.234375q0.8125 0 1.15625 -0.234375q0.359375 -0.25 0.359375 -0.640625q0 -0.265625 -0.140625 -0.46875q-0.140625 -0.203125 -0.609375 -0.46875q-0.46875 -0.265625 -1.453125 -0.671875q-0.953125 -0.40625 -1.578125 -0.8125q-0.609375 -0.40625 -0.90625 -0.96875q-0.296875 -0.5625 -0.296875 -1.421875q0 -1.421875 1.09375 -2.125q1.109375 -0.71875 2.9375 -0.71875q0.953125 0 1.796875 0.1875q0.859375 0.1875 1.78125 0.609375l-0.84375 2.0q-0.75 -0.3125 -1.421875 -0.53125q-0.671875 -0.21875 -1.359375 -0.21875q-1.234375 0 -1.234375 0.671875q0 0.25 0.15625 0.453125q0.171875 0.1875 0.625 0.421875q0.453125 0.21875 1.359375 0.59375q0.875 0.34375 1.5 0.734375q0.640625 0.375 0.984375 0.953125q0.34375 0.5625 0.34375 1.484375zm8.412781 5.96875l-7.734375 0l0 -1.28125l7.734375 0l0 1.28125zm7.6677246 -2.953125l-2.8125 0l0 -7.703125q0 -0.484375 0.015625 -1.265625q0.03125 -0.78125 0.0625 -1.390625q-0.09375 0.109375 -0.40625 0.40625q-0.3125 0.296875 -0.5625 0.515625l-1.53125 1.234375l-1.375 -1.703125l4.296875 -3.421875l2.3125 0l0 13.328125z" fill-rule="nonzero"/><path fill="#000000" d="m102.68519 393.766q0 2.53125 -1.828125 4.046875q-1.828125 1.5 -5.1875 1.5q-3.015625 0 -5.390625 -1.140625l0 -3.765625q1.359375 0.59375 2.8125 1.09375q1.453125 0.484375 2.90625 0.484375q1.484375 0 2.109375 -0.578125q0.625 -0.578125 0.625 -1.453125q0 -0.71875 -0.5 -1.21875q-0.484375 -0.515625 -1.3125 -0.953125q-0.828125 -0.4375 -1.890625 -0.9375q-0.671875 -0.328125 -1.4375 -0.765625q-0.765625 -0.4375 -1.484375 -1.09375q-0.703125 -0.65625 -1.15625 -1.578125q-0.453125 -0.9375 -0.453125 -2.25q0 -2.5625 1.734375 -3.984375q1.734375 -1.421875 4.71875 -1.421875q1.5 0 2.84375 0.34375q1.34375 0.34375 2.8125 0.984375l-1.3125 3.140625q-1.3125 -0.53125 -2.359375 -0.8125q-1.03125 -0.296875 -2.125 -0.296875q-1.140625 0 -1.75 0.53125q-0.609375 0.53125 -0.609375 1.390625q0 1.0 0.90625 1.59375q0.90625 0.59375 2.6875 1.4375q1.46875 0.6875 2.484375 1.4375q1.03125 0.75 1.59375 1.765625q0.5625 1.015625 0.5625 2.5zm10.796921 5.28125l-4.03125 0l0 -15.671875l-5.171875 0l0 -3.359375l14.375 0l0 3.359375l-5.171875 0l0 15.671875zm23.871422 -9.703125q0 4.828125 -2.734375 7.265625q-2.71875 2.4375 -7.6562576 2.4375l-5.375 0l0 -19.03125l5.96875 0q2.9843826 0 5.1718826 1.0625q2.203125 1.0625 3.40625 3.140625q1.21875 2.0625 1.21875 5.125zm-4.171875 0.109375q0 -3.171875 -1.390625 -4.65625q-1.390625 -1.484375 -4.0312576 -1.484375l-2.15625 0l0 12.40625l1.734375 0q5.8437576 0 5.8437576 -6.265625zm25.39743 0.046875q0 2.96875 -0.984375 5.171875q-0.96875 2.1875 -2.96875 3.421875q-1.984375 1.21875 -5.109375 1.21875q-3.09375 0 -5.109375 -1.21875q-2.015625 -1.234375 -2.984375 -3.4375q-0.96875 -2.21875 -0.96875 -5.171875q0 -2.96875 0.96875 -5.15625q0.96875 -2.1875 2.984375 -3.390625q2.015625 -1.21875 5.140625 -1.21875q3.09375 0 5.078125 1.21875q2.0 1.203125 2.96875 3.40625q0.984375 2.203125 0.984375 5.15625zm-13.890625 0q0 2.984375 1.140625 4.703125q1.15625 1.71875 3.6875 1.71875q2.578125 0 3.703125 -1.71875q1.125 -1.71875 1.125 -4.703125q0 -3.015625 -1.125 -4.71875q-1.125 -1.703125 -3.671875 -1.703125q-2.5625 0 -3.71875 1.703125q-1.140625 1.703125 -1.140625 4.71875zm33.327667 2.828125q0 1.96875 -0.875 3.5625q-0.859375 1.578125 -2.609375 2.5q-1.75 0.921875 -4.40625 0.921875q-3.796875 0 -5.765625 -1.921875q-1.96875 -1.9375 -1.96875 -5.109375l0 -12.265625l4.03125 0l0 11.640625q0 2.359375 0.953125 3.3125q0.953125 0.953125 2.859375 0.953125q1.96875 0 2.859375 -1.03125q0.890625 -1.046875 0.890625 -3.25l0 -11.625l4.03125 0l0 12.3125zm11.995804 6.71875l-4.03125 0l0 -15.671875l-5.171875 0l0 -3.359375l14.375 0l0 3.359375l-5.171875 0l0 15.671875z" fill-rule="nonzero"/></g><g filter="url(#shadowFilter-p.12)"><use xlink:href="#p.12" transform="matrix(1.0 0.0 0.0 1.0 4.388122309711313 4.091990026246732)"/></g><defs><filter id="shadowFilter-p.12" filterUnits="userSpaceOnUse"><feGaussianBlur in="SourceAlpha" stdDeviation="3.0" result="blur"/><feComponentTransfer in="blur" color-interpolation-filters="sRGB"><feFuncR type="linear" slope="0" intercept="0.4"/><feFuncG type="linear" slope="0" intercept="0.4"/><feFuncB type="linear" slope="0" intercept="0.4"/><feFuncA type="linear" slope="0.67" intercept="0"/></feComponentTransfer></filter></defs><g id="p.12"><path fill="#ffffff" d="m410.6929 186.14699l138.61417 0l0 42.015747l-138.61417 0z" fill-rule="evenodd"/><path fill="#000000" d="m445.72412 198.89511q0.609375 0 1.046875 0.296875q0.453125 0.28125 0.453125 1.0625q0 0.765625 -0.453125 1.0625q-0.4375 0.296875 -1.046875 0.296875q-0.640625 0 -1.078125 -0.296875q-0.4375 -0.296875 -0.4375 -1.0625q0 -0.78125 0.4375 -1.0625q0.4375 -0.296875 1.078125 -0.296875zm1.375 3.984375l0 10.1875l-2.78125 0l0 -10.1875l2.78125 0zm8.690155 -0.1875q1.640625 0 2.625 0.890625q1.0 0.890625 1.0 2.84375l0 6.640625l-2.78125 0l0 -5.953125q0 -1.09375 -0.390625 -1.640625q-0.390625 -0.5625 -1.25 -0.5625q-1.265625 0 -1.734375 0.875q-0.46875 0.859375 -0.46875 2.484375l0 4.796875l-2.78125 0l0 -10.1875l2.125 0l0.375 1.3125l0.15625 0q0.484375 -0.78125 1.328125 -1.140625q0.84375 -0.359375 1.796875 -0.359375zm12.116516 2.28125l-2.40625 0l0 8.09375l-2.78125 0l0 -8.09375l-1.53125 0l0 -1.34375l1.53125 -0.75l0 -0.75q0 -1.296875 0.4375 -2.015625q0.4375 -0.71875 1.25 -1.015625q0.8125 -0.296875 1.90625 -0.296875q0.828125 0 1.484375 0.125q0.671875 0.125 1.078125 0.296875l-0.71875 2.03125q-0.3125 -0.09375 -0.6875 -0.171875q-0.375 -0.09375 -0.859375 -0.09375q-0.578125 0 -0.84375 0.359375q-0.265625 0.359375 -0.265625 0.890625l0 0.640625l2.40625 0l0 2.09375zm2.984375 -6.078125q0.609375 0 1.046875 0.296875q0.453125 0.28125 0.453125 1.0625q0 0.765625 -0.453125 1.0625q-0.4375 0.296875 -1.046875 0.296875q-0.640625 0 -1.078125 -0.296875q-0.4375 -0.296875 -0.4375 -1.0625q0 -0.78125 0.4375 -1.0625q0.4375 -0.296875 1.078125 -0.296875zm1.375 3.984375l0 10.1875l-2.78125 0l0 -10.1875l2.78125 0zm5.6913757 10.1875l-2.78125 0l0 -14.171875l2.78125 0l0 14.171875zm7.11203 -10.375q2.109375 0 3.328125 1.203125q1.234375 1.203125 1.234375 3.421875l0 1.34375l-6.5625 0q0.03125 1.171875 0.6875 1.84375q0.671875 0.671875 1.84375 0.671875q1.0 0 1.796875 -0.1875q0.796875 -0.203125 1.65625 -0.609375l0 2.140625q-0.734375 0.375 -1.578125 0.546875q-0.828125 0.1875 -2.0 0.1875q-1.53125 0 -2.703125 -0.5625q-1.171875 -0.578125 -1.84375 -1.734375q-0.671875 -1.15625 -0.671875 -2.90625q0 -1.796875 0.59375 -2.96875q0.609375 -1.1875 1.6875 -1.78125q1.09375 -0.609375 2.53125 -0.609375zm0.015625 1.984375q-0.796875 0 -1.328125 0.53125q-0.53125 0.515625 -0.625 1.609375l3.890625 0q-0.015625 -0.9375 -0.484375 -1.53125q-0.46875 -0.609375 -1.453125 -0.609375zm13.057098 11.34375l-7.734375 0l0 -1.28125l7.734375 0l0 1.28125zm7.0583496 -11.046875l-2.40625 0l0 8.09375l-2.78125 0l0 -8.09375l-1.53125 0l0 -1.34375l1.53125 -0.75l0 -0.75q0 -1.296875 0.4375 -2.015625q0.4375 -0.71875 1.25 -1.015625q0.8125 -0.296875 1.90625 -0.296875q0.828125 0 1.484375 0.125q0.671875 0.125 1.078125 0.296875l-0.71875 2.03125q-0.3125 -0.09375 -0.6875 -0.171875q-0.375 -0.09375 -0.859375 -0.09375q-0.578125 0 -0.84375 0.359375q-0.265625 0.359375 -0.265625 0.890625l0 0.640625l2.40625 0l0 2.09375zm4.8137207 8.28125q-1.703125 0 -2.78125 -1.328125q-1.0625 -1.34375 -1.0625 -3.9375q0 -2.609375 1.078125 -3.953125q1.078125 -1.34375 2.828125 -1.34375q1.109375 0 1.8125 0.4375q0.71875 0.421875 1.125 1.0625l0.09375 0q-0.0625 -0.296875 -0.140625 -0.859375q-0.0625 -0.578125 -0.0625 -1.171875l0 -3.265625l2.78125 0l0 14.171875l-2.125 0l-0.546875 -1.328125l-0.109375 0q-0.421875 0.640625 -1.109375 1.078125q-0.6875 0.4375 -1.78125 0.4375zm0.96875 -2.21875q1.15625 0 1.625 -0.671875q0.46875 -0.6875 0.484375 -2.046875l0 -0.3125q0 -1.484375 -0.46875 -2.265625q-0.453125 -0.78125 -1.6875 -0.78125q-0.90625 0 -1.4375 0.796875q-0.515625 0.78125 -0.515625 2.28125q0 1.484375 0.515625 2.25q0.53125 0.75 1.484375 0.75z" fill-rule="nonzero"/></g><g filter="url(#shadowFilter-p.13)"><use xlink:href="#p.13" transform="matrix(1.0 0.0 0.0 1.0 4.388122309711313 4.091990026246694)"/></g><defs><filter id="shadowFilter-p.13" filterUnits="userSpaceOnUse"><feGaussianBlur in="SourceAlpha" stdDeviation="3.0" result="blur"/><feComponentTransfer in="blur" color-interpolation-filters="sRGB"><feFuncR type="linear" slope="0" intercept="0.4"/><feFuncG type="linear" slope="0" intercept="0.4"/><feFuncB type="linear" slope="0" intercept="0.4"/><feFuncA type="linear" slope="0.67" intercept="0"/></feComponentTransfer></filter></defs><g id="p.13"><path fill="#ffffff" d="m410.6929 395.37534l138.61417 0l0 42.015747l-138.61417 0z" fill-rule="evenodd"/><path fill="#000000" d="m446.59042 417.18594q0 2.53125 -1.328125 3.921875q-1.328125 1.375 -3.625 1.375q-1.421875 0 -2.53125 -0.609375q-1.109375 -0.625 -1.75 -1.8125q-0.625 -1.1875 -0.625 -2.875q0 -2.546875 1.3125 -3.90625q1.328125 -1.359375 3.640625 -1.359375q1.4375 0 2.53125 0.625q1.109375 0.609375 1.734375 1.78125q0.640625 1.15625 0.640625 2.859375zm-7.03125 0q0 1.515625 0.5 2.296875q0.5 0.765625 1.609375 0.765625q1.109375 0 1.59375 -0.765625q0.5 -0.78125 0.5 -2.296875q0 -1.515625 -0.5 -2.265625q-0.484375 -0.765625 -1.609375 -0.765625q-1.09375 0 -1.59375 0.765625q-0.5 0.75 -0.5 2.265625zm18.673218 -5.078125l0 10.1875l-2.125 0l-0.375 -1.3125l-0.140625 0q-0.484375 0.796875 -1.34375 1.15625q-0.84375 0.34375 -1.796875 0.34375q-1.640625 0 -2.625 -0.875q-0.984375 -0.890625 -0.984375 -2.859375l0 -6.640625l2.765625 0l0 5.953125q0 1.078125 0.390625 1.640625q0.40625 0.5625 1.265625 0.5625q1.265625 0 1.71875 -0.859375q0.46875 -0.875 0.46875 -2.5l0 -4.796875l2.78125 0zm7.210266 8.15625q0.46875 0 0.890625 -0.09375q0.4375 -0.09375 0.859375 -0.21875l0 2.0625q-0.453125 0.1875 -1.109375 0.328125q-0.65625 0.140625 -1.453125 0.140625q-0.90625 0 -1.625 -0.296875q-0.71875 -0.296875 -1.140625 -1.03125q-0.421875 -0.75 -0.421875 -2.046875l0 -4.90625l-1.328125 0l0 -1.171875l1.53125 -0.9375l0.8125 -2.140625l1.765625 0l0 2.15625l2.859375 0l0 2.09375l-2.859375 0l0 4.90625q0 0.578125 0.328125 0.875q0.34375 0.28125 0.890625 0.28125zm9.440582 -6.0625l-2.40625 0l0 8.09375l-2.78125 0l0 -8.09375l-1.53125 0l0 -1.34375l1.53125 -0.75l0 -0.75q0 -1.296875 0.4375 -2.015625q0.4375 -0.71875 1.25 -1.015625q0.8125 -0.296875 1.90625 -0.296875q0.828125 0 1.484375 0.125q0.671875 0.125 1.078125 0.296875l-0.71875 2.03125q-0.3125 -0.09375 -0.6875 -0.171875q-0.375 -0.09375 -0.859375 -0.09375q-0.578125 0 -0.84375 0.359375q-0.265625 0.359375 -0.265625 0.890625l0 0.640625l2.40625 0l0 2.09375zm2.984375 -6.078125q0.609375 0 1.046875 0.296875q0.453125 0.28125 0.453125 1.0625q0 0.765625 -0.453125 1.0625q-0.4375 0.296875 -1.046875 0.296875q-0.640625 0 -1.078125 -0.296875q-0.4375 -0.296875 -0.4375 -1.0625q0 -0.78125 0.4375 -1.0625q0.4375 -0.296875 1.078125 -0.296875zm1.375 3.984375l0 10.1875l-2.78125 0l0 -10.1875l2.78125 0zm5.6913757 10.1875l-2.78125 0l0 -14.171875l2.78125 0l0 14.171875zm7.11203 -10.375q2.109375 0 3.328125 1.203125q1.234375 1.203125 1.234375 3.421875l0 1.34375l-6.5625 0q0.03125 1.171875 0.6875 1.84375q0.671875 0.671875 1.84375 0.671875q1.0 0 1.796875 -0.1875q0.796875 -0.203125 1.65625 -0.609375l0 2.140625q-0.734375 0.375 -1.578125 0.546875q-0.828125 0.1875 -2.0 0.1875q-1.53125 0 -2.703125 -0.5625q-1.171875 -0.578125 -1.84375 -1.734375q-0.671875 -1.15625 -0.671875 -2.90625q0 -1.796875 0.59375 -2.96875q0.609375 -1.1875 1.6875 -1.78125q1.09375 -0.609375 2.53125 -0.609375zm0.015625 1.984375q-0.796875 0 -1.328125 0.53125q-0.53125 0.515625 -0.625 1.609375l3.890625 0q-0.015625 -0.9375 -0.484375 -1.53125q-0.46875 -0.609375 -1.453125 -0.609375zm13.057098 11.34375l-7.734375 0l0 -1.28125l7.734375 0l0 1.28125zm7.058319 -11.046875l-2.4062195 0l0 8.09375l-2.78125 0l0 -8.09375l-1.53125 0l0 -1.34375l1.53125 -0.75l0 -0.75q0 -1.296875 0.4375 -2.015625q0.4375 -0.71875 1.25 -1.015625q0.8125 -0.296875 1.90625 -0.296875q0.828125 0 1.4843445 0.125q0.671875 0.125 1.078125 0.296875l-0.71875 2.03125q-0.3125 -0.09375 -0.6874695 -0.171875q-0.375 -0.09375 -0.859375 -0.09375q-0.578125 0 -0.84375 0.359375q-0.265625 0.359375 -0.265625 0.890625l0 0.640625l2.4062195 0l0 2.09375zm4.8137207 8.28125q-1.703125 0 -2.78125 -1.328125q-1.0625 -1.34375 -1.0625 -3.9375q0 -2.609375 1.078125 -3.953125q1.078125 -1.34375 2.828125 -1.34375q1.109375 0 1.8125 0.4375q0.71875 0.421875 1.125 1.0625l0.09375 0q-0.0625 -0.296875 -0.140625 -0.859375q-0.0625 -0.578125 -0.0625 -1.171875l0 -3.265625l2.78125 0l0 14.171875l-2.125 0l-0.546875 -1.328125l-0.109375 0q-0.421875 0.640625 -1.109375 1.078125q-0.6875 0.4375 -1.78125 0.4375zm0.96875 -2.21875q1.15625 0 1.625 -0.671875q0.46875 -0.6875 0.484375 -2.046875l0 -0.3125q0 -1.484375 -0.46875 -2.265625q-0.453125 -0.78125 -1.6875 -0.78125q-0.90625 0 -1.4375 0.796875q-0.515625 0.78125 -0.515625 2.28125q0 1.484375 0.515625 2.25q0.53125 0.75 1.484375 0.75z" fill-rule="nonzero"/></g><g filter="url(#shadowFilter-p.14)"><use xlink:href="#p.14" transform="matrix(1.0 0.0 0.0 1.0 4.388122309711236 4.091990026246732)"/></g><defs><filter id="shadowFilter-p.14" filterUnits="userSpaceOnUse"><feGaussianBlur in="SourceAlpha" stdDeviation="3.0" result="blur"/><feComponentTransfer in="blur" color-interpolation-filters="sRGB"><feFuncR type="linear" slope="0" intercept="0.4"/><feFuncG type="linear" slope="0" intercept="0.4"/><feFuncB type="linear" slope="0" intercept="0.4"/><feFuncA type="linear" slope="0.67" intercept="0"/></feComponentTransfer></filter></defs><g id="p.14"><path fill="#ffffff" d="m728.9055 209.0433l177.4173 0l0 74.33072l-177.4173 0z" fill-rule="evenodd"/><path fill="#000000" d="m752.3796 236.1508q-2.265625 0 -3.515625 -1.25q-1.234375 -1.265625 -1.234375 -3.96875q0 -1.875 0.625 -3.046875q0.640625 -1.171875 1.765625 -1.734375q1.125 -0.5625 2.609375 -0.5625q1.046875 0 1.8125 0.203125q0.78125 0.203125 1.359375 0.484375l-0.828125 2.15625q-0.65625 -0.265625 -1.21875 -0.4375q-0.5625 -0.171875 -1.125 -0.171875q-2.171875 0 -2.171875 3.078125q0 1.53125 0.5625 2.265625q0.578125 0.71875 1.609375 0.71875q0.875 0 1.546875 -0.21875q0.671875 -0.234375 1.296875 -0.65625l0 2.375q-0.625 0.40625 -1.328125 0.578125q-0.703125 0.1875 -1.765625 0.1875zm8.229919 -11.46875q0 0.734375 -0.046875 1.4375q-0.046875 0.6875 -0.078125 0.96875l0.140625 0q0.484375 -0.78125 1.25 -1.140625q0.765625 -0.359375 1.703125 -0.359375q1.65625 0 2.65625 0.890625q1.0 0.890625 1.0 2.84375l0 6.640625l-2.78125 0l0 -5.953125q0 -2.203125 -1.640625 -2.203125q-1.25 0 -1.734375 0.875q-0.46875 0.859375 -0.46875 2.484375l0 4.796875l-2.78125 0l0 -14.171875l2.78125 0l0 2.890625zm10.882202 -2.890625q0.609375 0 1.046875 0.296875q0.453125 0.28125 0.453125 1.0625q0 0.765625 -0.453125 1.0625q-0.4375 0.296875 -1.046875 0.296875q-0.640625 0 -1.078125 -0.296875q-0.4375 -0.296875 -0.4375 -1.0625q0 -0.78125 0.4375 -1.0625q0.4375 -0.296875 1.078125 -0.296875zm1.375 3.984375l0 10.1875l-2.78125 0l0 -10.1875l2.78125 0zm5.6901245 10.1875l-2.78125 0l0 -14.171875l2.78125 0l0 14.171875zm6.1433105 0.1875q-1.703125 0 -2.78125 -1.328125q-1.0625 -1.34375 -1.0625 -3.9375q0 -2.609375 1.078125 -3.953125q1.078125 -1.34375 2.828125 -1.34375q1.109375 0 1.8125 0.4375q0.71875 0.421875 1.125 1.0625l0.09375 0q-0.0625 -0.296875 -0.140625 -0.859375q-0.0625 -0.578125 -0.0625 -1.171875l0 -3.265625l2.78125 0l0 14.171875l-2.125 0l-0.546875 -1.328125l-0.109375 0q-0.421875 0.640625 -1.109375 1.078125q-0.6875 0.4375 -1.78125 0.4375zm0.96875 -2.21875q1.15625 0 1.625 -0.671875q0.46875 -0.6875 0.484375 -2.046875l0 -0.3125q0 -1.484375 -0.46875 -2.265625q-0.453125 -0.78125 -1.6875 -0.78125q-0.90625 0 -1.4375 0.796875q-0.515625 0.78125 -0.515625 2.28125q0 1.484375 0.515625 2.25q0.53125 0.75 1.484375 0.75zm13.856262 4.984375l-7.734375 0l0 -1.28125l7.734375 0l0 1.28125zm7.0895996 -13.328125q1.71875 0 2.78125 1.34375q1.0625 1.328125 1.0625 3.921875q0 2.59375 -1.109375 3.953125q-1.09375 1.34375 -2.8125 1.34375q-1.09375 0 -1.75 -0.390625q-0.65625 -0.40625 -1.0625 -0.921875l-0.15625 0q0.15625 0.796875 0.15625 1.5l0 4.109375l-2.78125 0l0 -14.671875l2.265625 0l0.390625 1.328125l0.125 0q0.40625 -0.625 1.09375 -1.0625q0.703125 -0.453125 1.796875 -0.453125zm-0.890625 2.21875q-1.078125 0 -1.53125 0.671875q-0.4375 0.671875 -0.46875 2.0625l0 0.296875q0 1.46875 0.4375 2.265625q0.4375 0.78125 1.59375 0.78125q0.953125 0 1.40625 -0.78125q0.46875 -0.796875 0.46875 -2.296875q0 -3.0 -1.90625 -3.0zm12.715637 -2.21875q0.203125 0 0.484375 0.03125q0.28125 0.015625 0.453125 0.046875l-0.203125 2.609375q-0.125 -0.03125 -0.390625 -0.0625q-0.25 -0.03125 -0.4375 -0.03125q-0.703125 0 -1.359375 0.25q-0.65625 0.25 -1.0625 0.8125q-0.390625 0.5625 -0.390625 1.53125l0 5.1875l-2.78125 0l0 -10.1875l2.109375 0l0.40625 1.71875l0.140625 0q0.4375 -0.78125 1.21875 -1.34375q0.796875 -0.5625 1.8125 -0.5625zm11.659119 5.265625q0 2.53125 -1.328125 3.921875q-1.328125 1.375 -3.625 1.375q-1.421875 0 -2.53125 -0.609375q-1.109375 -0.625 -1.75 -1.8125q-0.625 -1.1875 -0.625 -2.875q0 -2.546875 1.3125 -3.90625q1.328125 -1.359375 3.640625 -1.359375q1.4375 0 2.53125 0.625q1.109375 0.609375 1.734375 1.78125q0.640625 1.15625 0.640625 2.859375zm-7.03125 0q0 1.515625 0.5 2.296875q0.5 0.765625 1.609375 0.765625q1.109375 0 1.59375 -0.765625q0.5 -0.78125 0.5 -2.296875q0 -1.515625 -0.5 -2.265625q-0.484375 -0.765625 -1.609375 -0.765625q-1.09375 0 -1.59375 0.765625q-0.5 0.75 -0.5 2.265625zm13.470093 5.296875q-2.265625 0 -3.515625 -1.25q-1.234375 -1.265625 -1.234375 -3.96875q0 -1.875 0.625 -3.046875q0.640625 -1.171875 1.765625 -1.734375q1.125 -0.5625 2.609375 -0.5625q1.046875 0 1.8125 0.203125q0.78125 0.203125 1.359375 0.484375l-0.828125 2.15625q-0.65625 -0.265625 -1.21875 -0.4375q-0.5625 -0.171875 -1.125 -0.171875q-2.171875 0 -2.171875 3.078125q0 1.53125 0.5625 2.265625q0.578125 0.71875 1.609375 0.71875q0.875 0 1.546875 -0.21875q0.671875 -0.234375 1.296875 -0.65625l0 2.375q-0.625 0.40625 -1.328125 0.578125q-0.703125 0.1875 -1.765625 0.1875zm9.651794 -10.5625q2.109375 0 3.328125 1.203125q1.234375 1.203125 1.234375 3.421875l0 1.34375l-6.5625 0q0.03125 1.171875 0.6875 1.84375q0.671875 0.671875 1.84375 0.671875q1.0 0 1.796875 -0.1875q0.796875 -0.203125 1.65625 -0.609375l0 2.140625q-0.734375 0.375 -1.578125 0.546875q-0.828125 0.1875 -2.0 0.1875q-1.53125 0 -2.703125 -0.5625q-1.171875 -0.578125 -1.84375 -1.734375q-0.671875 -1.15625 -0.671875 -2.90625q0 -1.796875 0.59375 -2.96875q0.609375 -1.1875 1.6875 -1.78125q1.09375 -0.609375 2.53125 -0.609375zm0.015625 1.984375q-0.796875 0 -1.328125 0.53125q-0.53125 0.515625 -0.625 1.609375l3.890625 0q-0.015625 -0.9375 -0.484375 -1.53125q-0.46875 -0.609375 -1.453125 -0.609375zm13.916443 5.375q0 1.546875 -1.09375 2.375q-1.09375 0.828125 -3.249939 0.828125q-1.0625 0 -1.828125 -0.140625q-0.765625 -0.140625 -1.53125 -0.453125l0 -2.296875q0.8125 0.375 1.765625 0.625q0.953125 0.234375 1.6875 0.234375q0.8125 0 1.156189 -0.234375q0.359375 -0.25 0.359375 -0.640625q0 -0.265625 -0.140625 -0.46875q-0.140625 -0.203125 -0.60931396 -0.46875q-0.46875 -0.265625 -1.453125 -0.671875q-0.953125 -0.40625 -1.578125 -0.8125q-0.609375 -0.40625 -0.90625 -0.96875q-0.296875 -0.5625 -0.296875 -1.421875q0 -1.421875 1.09375 -2.125q1.109375 -0.71875 2.9375 -0.71875q0.95306396 0 1.796814 0.1875q0.859375 0.1875 1.78125 0.609375l-0.84375 2.0q-0.75 -0.3125 -1.421875 -0.53125q-0.671875 -0.21875 -1.359314 -0.21875q-1.234375 0 -1.234375 0.671875q0 0.25 0.15625 0.453125q0.171875 0.1875 0.625 0.421875q0.453125 0.21875 1.359314 0.59375q0.875 0.34375 1.5 0.734375q0.640625 0.375 0.984375 0.953125q0.34375 0.5625 0.34375 1.484375zm9.272156 0q0 1.546875 -1.09375 2.375q-1.09375 0.828125 -3.25 0.828125q-1.0625 0 -1.828125 -0.140625q-0.765625 -0.140625 -1.53125 -0.453125l0 -2.296875q0.8125 0.375 1.765625 0.625q0.953125 0.234375 1.6875 0.234375q0.8125 0 1.15625 -0.234375q0.359375 -0.25 0.359375 -0.640625q0 -0.265625 -0.140625 -0.46875q-0.140625 -0.203125 -0.609375 -0.46875q-0.46875 -0.265625 -1.453125 -0.671875q-0.953125 -0.40625 -1.578125 -0.8125q-0.609375 -0.40625 -0.90625 -0.96875q-0.296875 -0.5625 -0.296875 -1.421875q0 -1.421875 1.09375 -2.125q1.109375 -0.71875 2.9375 -0.71875q0.953125 0 1.796875 0.1875q0.859375 0.1875 1.78125 0.609375l-0.84375 2.0q-0.75 -0.3125 -1.421875 -0.53125q-0.671875 -0.21875 -1.359375 -0.21875q-1.234375 0 -1.234375 0.671875q0 0.25 0.15625 0.453125q0.171875 0.1875 0.625 0.421875q0.453125 0.21875 1.359375 0.59375q0.875 0.34375 1.5 0.734375q0.640625 0.375 0.984375 0.953125q0.34375 0.5625 0.34375 1.484375zm8.412781 5.96875l-7.734375 0l0 -1.28125l7.734375 0l0 1.28125zm10.0271 -2.953125l-9.3125 0l0 -1.953125l3.328125 -3.375q1.015625 -1.046875 1.625 -1.75q0.625 -0.703125 0.90625 -1.265625q0.28125 -0.578125 0.28125 -1.234375q0 -0.796875 -0.453125 -1.1875q-0.4375 -0.390625 -1.171875 -0.390625q-0.765625 0 -1.5 0.359375q-0.71875 0.34375 -1.53125 1.0l-1.53125 -1.8125q0.578125 -0.5 1.21875 -0.921875q0.65625 -0.4375 1.5 -0.703125q0.84375 -0.265625 2.046875 -0.265625q1.296875 0 2.234375 0.46875q0.953125 0.46875 1.46875 1.28125q0.515625 0.8125 0.515625 1.84375q0 1.09375 -0.4375 2.015625q-0.4375 0.90625 -1.28125 1.8125q-0.828125 0.890625 -2.0 1.96875l-1.71875 1.609375l0 0.125l5.8125 0l0 2.375z" fill-rule="nonzero"/><path fill="#000000" d="m790.29535 260.76205q0 2.53125 -1.828125 4.046875q-1.828125 1.5 -5.1875 1.5q-3.015625 0 -5.390625 -1.140625l0 -3.765625q1.359375 0.59375 2.8125 1.09375q1.453125 0.484375 2.90625 0.484375q1.484375 0 2.109375 -0.578125q0.625 -0.578125 0.625 -1.453125q0 -0.71875 -0.5 -1.21875q-0.484375 -0.515625 -1.3125 -0.953125q-0.828125 -0.4375 -1.890625 -0.9375q-0.671875 -0.328125 -1.4375 -0.765625q-0.765625 -0.4375 -1.484375 -1.09375q-0.703125 -0.65625 -1.15625 -1.578125q-0.453125 -0.9375 -0.453125 -2.25q0 -2.5625 1.734375 -3.984375q1.734375 -1.421875 4.71875 -1.421875q1.5 0 2.84375 0.34375q1.34375 0.34375 2.8125 0.984375l-1.3125 3.140625q-1.3125 -0.53125 -2.359375 -0.8125q-1.03125 -0.296875 -2.125 -0.296875q-1.140625 0 -1.75 0.53125q-0.609375 0.53125 -0.609375 1.390625q0 1.0 0.90625 1.59375q0.90625 0.59375 2.6875 1.4375q1.46875 0.6875 2.484375 1.4375q1.03125 0.75 1.59375 1.765625q0.5625 1.015625 0.5625 2.5zm10.796875 5.28125l-4.03125 0l0 -15.671875l-5.171875 0l0 -3.359375l14.375 0l0 3.359375l-5.171875 0l0 15.671875zm23.87146 -9.703125q0 4.828125 -2.734375 7.265625q-2.71875 2.4375 -7.65625 2.4375l-5.375 0l0 -19.03125l5.96875 0q2.984375 0 5.171875 1.0625q2.203125 1.0625 3.40625 3.140625q1.21875 2.0625 1.21875 5.125zm-4.171875 0.109375q0 -3.171875 -1.390625 -4.65625q-1.390625 -1.484375 -4.03125 -1.484375l-2.15625 0l0 12.40625l1.734375 0q5.84375 0 5.84375 -6.265625zm15.24115 9.59375l-8.65625 0l0 -2.296875l2.3125 -1.0625l0 -12.3125l-2.3125 -1.0625l0 -2.296875l8.65625 0l0 2.296875l-2.3125 1.0625l0 12.3125l2.3125 1.0625l0 2.296875zm20.119263 0l-5.109375 0l-8.296875 -14.390625l-0.109375 0q0.0625 1.359375 0.125 2.71875q0.0625 1.359375 0.125 2.71875l0 8.953125l-3.59375 0l0 -19.03125l5.078125 0l8.265625 14.265625l0.078125 0q-0.015625 -1.34375 -0.078125 -2.640625q-0.046875 -1.3125 -0.109375 -2.609375l0 -9.015625l3.625 0l0 19.03125z" fill-rule="nonzero"/></g><g filter="url(#shadowFilter-p.15)"><use xlink:href="#p.15" transform="matrix(1.0 0.0 0.0 1.0 4.388122309711236 4.091990026246694)"/></g><defs><filter id="shadowFilter-p.15" filterUnits="userSpaceOnUse"><feGaussianBlur in="SourceAlpha" stdDeviation="3.0" result="blur"/><feComponentTransfer in="blur" color-interpolation-filters="sRGB"><feFuncR type="linear" slope="0" intercept="0.4"/><feFuncG type="linear" slope="0" intercept="0.4"/><feFuncB type="linear" slope="0" intercept="0.4"/><feFuncA type="linear" slope="0.67" intercept="0"/></feComponentTransfer></filter></defs><g id="p.15"><path fill="#ffffff" d="m728.9055 342.04724l177.4173 0l0 74.33072l-177.4173 0z" fill-rule="evenodd"/><path fill="#000000" d="m752.3796 369.15475q-2.265625 0 -3.515625 -1.25q-1.234375 -1.265625 -1.234375 -3.96875q0 -1.875 0.625 -3.046875q0.640625 -1.171875 1.765625 -1.734375q1.125 -0.5625 2.609375 -0.5625q1.046875 0 1.8125 0.203125q0.78125 0.203125 1.359375 0.484375l-0.828125 2.15625q-0.65625 -0.265625 -1.21875 -0.4375q-0.5625 -0.171875 -1.125 -0.171875q-2.171875 0 -2.171875 3.078125q0 1.53125 0.5625 2.265625q0.578125 0.71875 1.609375 0.71875q0.875 0 1.546875 -0.21875q0.671875 -0.234375 1.296875 -0.65625l0 2.375q-0.625 0.40625 -1.328125 0.578125q-0.703125 0.1875 -1.765625 0.1875zm8.229919 -11.46875q0 0.734375 -0.046875 1.4375q-0.046875 0.6875 -0.078125 0.96875l0.140625 0q0.484375 -0.78125 1.25 -1.140625q0.765625 -0.359375 1.703125 -0.359375q1.65625 0 2.65625 0.890625q1.0 0.890625 1.0 2.84375l0 6.640625l-2.78125 0l0 -5.953125q0 -2.203125 -1.640625 -2.203125q-1.25 0 -1.734375 0.875q-0.46875 0.859375 -0.46875 2.484375l0 4.796875l-2.78125 0l0 -14.171875l2.78125 0l0 2.890625zm10.882202 -2.890625q0.609375 0 1.046875 0.296875q0.453125 0.28125 0.453125 1.0625q0 0.765625 -0.453125 1.0625q-0.4375 0.296875 -1.046875 0.296875q-0.640625 0 -1.078125 -0.296875q-0.4375 -0.296875 -0.4375 -1.0625q0 -0.78125 0.4375 -1.0625q0.4375 -0.296875 1.078125 -0.296875zm1.375 3.984375l0 10.1875l-2.78125 0l0 -10.1875l2.78125 0zm5.6901245 10.1875l-2.78125 0l0 -14.171875l2.78125 0l0 14.171875zm6.1433105 0.1875q-1.703125 0 -2.78125 -1.328125q-1.0625 -1.34375 -1.0625 -3.9375q0 -2.609375 1.078125 -3.953125q1.078125 -1.34375 2.828125 -1.34375q1.109375 0 1.8125 0.4375q0.71875 0.421875 1.125 1.0625l0.09375 0q-0.0625 -0.296875 -0.140625 -0.859375q-0.0625 -0.578125 -0.0625 -1.171875l0 -3.265625l2.78125 0l0 14.171875l-2.125 0l-0.546875 -1.328125l-0.109375 0q-0.421875 0.640625 -1.109375 1.078125q-0.6875 0.4375 -1.78125 0.4375zm0.96875 -2.21875q1.15625 0 1.625 -0.671875q0.46875 -0.6875 0.484375 -2.046875l0 -0.3125q0 -1.484375 -0.46875 -2.265625q-0.453125 -0.78125 -1.6875 -0.78125q-0.90625 0 -1.4375 0.796875q-0.515625 0.78125 -0.515625 2.28125q0 1.484375 0.515625 2.25q0.53125 0.75 1.484375 0.75zm13.856262 4.984375l-7.734375 0l0 -1.28125l7.734375 0l0 1.28125zm7.0895996 -13.328125q1.71875 0 2.78125 1.34375q1.0625 1.328125 1.0625 3.921875q0 2.59375 -1.109375 3.953125q-1.09375 1.34375 -2.8125 1.34375q-1.09375 0 -1.75 -0.390625q-0.65625 -0.40625 -1.0625 -0.921875l-0.15625 0q0.15625 0.796875 0.15625 1.5l0 4.109375l-2.78125 0l0 -14.671875l2.265625 0l0.390625 1.328125l0.125 0q0.40625 -0.625 1.09375 -1.0625q0.703125 -0.453125 1.796875 -0.453125zm-0.890625 2.21875q-1.078125 0 -1.53125 0.671875q-0.4375 0.671875 -0.46875 2.0625l0 0.296875q0 1.46875 0.4375 2.265625q0.4375 0.78125 1.59375 0.78125q0.953125 0 1.40625 -0.78125q0.46875 -0.796875 0.46875 -2.296875q0 -3.0 -1.90625 -3.0zm12.715637 -2.21875q0.203125 0 0.484375 0.03125q0.28125 0.015625 0.453125 0.046875l-0.203125 2.609375q-0.125 -0.03125 -0.390625 -0.0625q-0.25 -0.03125 -0.4375 -0.03125q-0.703125 0 -1.359375 0.25q-0.65625 0.25 -1.0625 0.8125q-0.390625 0.5625 -0.390625 1.53125l0 5.1875l-2.78125 0l0 -10.1875l2.109375 0l0.40625 1.71875l0.140625 0q0.4375 -0.78125 1.21875 -1.34375q0.796875 -0.5625 1.8125 -0.5625zm11.659119 5.265625q0 2.53125 -1.328125 3.921875q-1.328125 1.375 -3.625 1.375q-1.421875 0 -2.53125 -0.609375q-1.109375 -0.625 -1.75 -1.8125q-0.625 -1.1875 -0.625 -2.875q0 -2.546875 1.3125 -3.90625q1.328125 -1.359375 3.640625 -1.359375q1.4375 0 2.53125 0.625q1.109375 0.609375 1.734375 1.78125q0.640625 1.15625 0.640625 2.859375zm-7.03125 0q0 1.515625 0.5 2.296875q0.5 0.765625 1.609375 0.765625q1.109375 0 1.59375 -0.765625q0.5 -0.78125 0.5 -2.296875q0 -1.515625 -0.5 -2.265625q-0.484375 -0.765625 -1.609375 -0.765625q-1.09375 0 -1.59375 0.765625q-0.5 0.75 -0.5 2.265625zm13.470093 5.296875q-2.265625 0 -3.515625 -1.25q-1.234375 -1.265625 -1.234375 -3.96875q0 -1.875 0.625 -3.046875q0.640625 -1.171875 1.765625 -1.734375q1.125 -0.5625 2.609375 -0.5625q1.046875 0 1.8125 0.203125q0.78125 0.203125 1.359375 0.484375l-0.828125 2.15625q-0.65625 -0.265625 -1.21875 -0.4375q-0.5625 -0.171875 -1.125 -0.171875q-2.171875 0 -2.171875 3.078125q0 1.53125 0.5625 2.265625q0.578125 0.71875 1.609375 0.71875q0.875 0 1.546875 -0.21875q0.671875 -0.234375 1.296875 -0.65625l0 2.375q-0.625 0.40625 -1.328125 0.578125q-0.703125 0.1875 -1.765625 0.1875zm9.651794 -10.5625q2.109375 0 3.328125 1.203125q1.234375 1.203125 1.234375 3.421875l0 1.34375l-6.5625 0q0.03125 1.171875 0.6875 1.84375q0.671875 0.671875 1.84375 0.671875q1.0 0 1.796875 -0.1875q0.796875 -0.203125 1.65625 -0.609375l0 2.140625q-0.734375 0.375 -1.578125 0.546875q-0.828125 0.1875 -2.0 0.1875q-1.53125 0 -2.703125 -0.5625q-1.171875 -0.578125 -1.84375 -1.734375q-0.671875 -1.15625 -0.671875 -2.90625q0 -1.796875 0.59375 -2.96875q0.609375 -1.1875 1.6875 -1.78125q1.09375 -0.609375 2.53125 -0.609375zm0.015625 1.984375q-0.796875 0 -1.328125 0.53125q-0.53125 0.515625 -0.625 1.609375l3.890625 0q-0.015625 -0.9375 -0.484375 -1.53125q-0.46875 -0.609375 -1.453125 -0.609375zm13.916443 5.375q0 1.546875 -1.09375 2.375q-1.09375 0.828125 -3.249939 0.828125q-1.0625 0 -1.828125 -0.140625q-0.765625 -0.140625 -1.53125 -0.453125l0 -2.296875q0.8125 0.375 1.765625 0.625q0.953125 0.234375 1.6875 0.234375q0.8125 0 1.156189 -0.234375q0.359375 -0.25 0.359375 -0.640625q0 -0.265625 -0.140625 -0.46875q-0.140625 -0.203125 -0.60931396 -0.46875q-0.46875 -0.265625 -1.453125 -0.671875q-0.953125 -0.40625 -1.578125 -0.8125q-0.609375 -0.40625 -0.90625 -0.96875q-0.296875 -0.5625 -0.296875 -1.421875q0 -1.421875 1.09375 -2.125q1.109375 -0.71875 2.9375 -0.71875q0.95306396 0 1.796814 0.1875q0.859375 0.1875 1.78125 0.609375l-0.84375 2.0q-0.75 -0.3125 -1.421875 -0.53125q-0.671875 -0.21875 -1.359314 -0.21875q-1.234375 0 -1.234375 0.671875q0 0.25 0.15625 0.453125q0.171875 0.1875 0.625 0.421875q0.453125 0.21875 1.359314 0.59375q0.875 0.34375 1.5 0.734375q0.640625 0.375 0.984375 0.953125q0.34375 0.5625 0.34375 1.484375zm9.272156 0q0 1.546875 -1.09375 2.375q-1.09375 0.828125 -3.25 0.828125q-1.0625 0 -1.828125 -0.140625q-0.765625 -0.140625 -1.53125 -0.453125l0 -2.296875q0.8125 0.375 1.765625 0.625q0.953125 0.234375 1.6875 0.234375q0.8125 0 1.15625 -0.234375q0.359375 -0.25 0.359375 -0.640625q0 -0.265625 -0.140625 -0.46875q-0.140625 -0.203125 -0.609375 -0.46875q-0.46875 -0.265625 -1.453125 -0.671875q-0.953125 -0.40625 -1.578125 -0.8125q-0.609375 -0.40625 -0.90625 -0.96875q-0.296875 -0.5625 -0.296875 -1.421875q0 -1.421875 1.09375 -2.125q1.109375 -0.71875 2.9375 -0.71875q0.953125 0 1.796875 0.1875q0.859375 0.1875 1.78125 0.609375l-0.84375 2.0q-0.75 -0.3125 -1.421875 -0.53125q-0.671875 -0.21875 -1.359375 -0.21875q-1.234375 0 -1.234375 0.671875q0 0.25 0.15625 0.453125q0.171875 0.1875 0.625 0.421875q0.453125 0.21875 1.359375 0.59375q0.875 0.34375 1.5 0.734375q0.640625 0.375 0.984375 0.953125q0.34375 0.5625 0.34375 1.484375zm8.412781 5.96875l-7.734375 0l0 -1.28125l7.734375 0l0 1.28125zm10.0271 -2.953125l-9.3125 0l0 -1.953125l3.328125 -3.375q1.015625 -1.046875 1.625 -1.75q0.625 -0.703125 0.90625 -1.265625q0.28125 -0.578125 0.28125 -1.234375q0 -0.796875 -0.453125 -1.1875q-0.4375 -0.390625 -1.171875 -0.390625q-0.765625 0 -1.5 0.359375q-0.71875 0.34375 -1.53125 1.0l-1.53125 -1.8125q0.578125 -0.5 1.21875 -0.921875q0.65625 -0.4375 1.5 -0.703125q0.84375 -0.265625 2.046875 -0.265625q1.296875 0 2.234375 0.46875q0.953125 0.46875 1.46875 1.28125q0.515625 0.8125 0.515625 1.84375q0 1.09375 -0.4375 2.015625q-0.4375 0.90625 -1.28125 1.8125q-0.828125 0.890625 -2.0 1.96875l-1.71875 1.609375l0 0.125l5.8125 0l0 2.375z" fill-rule="nonzero"/><path fill="#000000" d="m777.9135 393.766q0 2.53125 -1.828125 4.046875q-1.828125 1.5 -5.1875 1.5q-3.015625 0 -5.390625 -1.140625l0 -3.765625q1.359375 0.59375 2.8125 1.09375q1.453125 0.484375 2.90625 0.484375q1.484375 0 2.109375 -0.578125q0.625 -0.578125 0.625 -1.453125q0 -0.71875 -0.5 -1.21875q-0.484375 -0.515625 -1.3125 -0.953125q-0.828125 -0.4375 -1.890625 -0.9375q-0.671875 -0.328125 -1.4375 -0.765625q-0.765625 -0.4375 -1.484375 -1.09375q-0.703125 -0.65625 -1.15625 -1.578125q-0.453125 -0.9375 -0.453125 -2.25q0 -2.5625 1.734375 -3.984375q1.734375 -1.421875 4.71875 -1.421875q1.5 0 2.84375 0.34375q1.34375 0.34375 2.8125 0.984375l-1.3125 3.140625q-1.3125 -0.53125 -2.359375 -0.8125q-1.03125 -0.296875 -2.125 -0.296875q-1.140625 0 -1.75 0.53125q-0.609375 0.53125 -0.609375 1.390625q0 1.0 0.90625 1.59375q0.90625 0.59375 2.6875 1.4375q1.46875 0.6875 2.484375 1.4375q1.03125 0.75 1.59375 1.765625q0.5625 1.015625 0.5625 2.5zm10.796936 5.28125l-4.03125 0l0 -15.671875l-5.171875 0l0 -3.359375l14.375 0l0 3.359375l-5.171875 0l0 15.671875zm23.871399 -9.703125q0 4.828125 -2.734375 7.265625q-2.71875 2.4375 -7.65625 2.4375l-5.375 0l0 -19.03125l5.96875 0q2.984375 0 5.171875 1.0625q2.203125 1.0625 3.40625 3.140625q1.21875 2.0625 1.21875 5.125zm-4.171875 0.109375q0 -3.171875 -1.390625 -4.65625q-1.390625 -1.484375 -4.03125 -1.484375l-2.15625 0l0 12.40625l1.734375 0q5.84375 0 5.84375 -6.265625zm25.39746 0.046875q0 2.96875 -0.984375 5.171875q-0.96875 2.1875 -2.96875 3.421875q-1.984375 1.21875 -5.109375 1.21875q-3.09375 0 -5.109375 -1.21875q-2.015625 -1.234375 -2.984375 -3.4375q-0.96875 -2.21875 -0.96875 -5.171875q0 -2.96875 0.96875 -5.15625q0.96875 -2.1875 2.984375 -3.390625q2.015625 -1.21875 5.140625 -1.21875q3.09375 0 5.078125 1.21875q2.0 1.203125 2.96875 3.40625q0.984375 2.203125 0.984375 5.15625zm-13.890625 0q0 2.984375 1.140625 4.703125q1.15625 1.71875 3.6875 1.71875q2.578125 0 3.703125 -1.71875q1.125 -1.71875 1.125 -4.703125q0 -3.015625 -1.125 -4.71875q-1.125 -1.703125 -3.671875 -1.703125q-2.5625 0 -3.71875 1.703125q-1.140625 1.703125 -1.140625 4.71875zm33.327637 2.828125q0 1.96875 -0.875 3.5625q-0.859375 1.578125 -2.609375 2.5q-1.75 0.921875 -4.40625 0.921875q-3.796875 0 -5.765625 -1.921875q-1.96875 -1.9375 -1.96875 -5.109375l0 -12.265625l4.03125 0l0 11.640625q0 2.359375 0.953125 3.3125q0.953125 0.953125 2.859375 0.953125q1.96875 0 2.859375 -1.03125q0.890625 -1.046875 0.890625 -3.25l0 -11.625l4.03125 0l0 12.3125zm11.99585 6.71875l-4.03125 0l0 -15.671875l-5.171875 0l0 -3.359375l14.375 0l0 3.359375l-5.171875 0l0 15.671875z" fill-rule="nonzero"/></g><path fill="#000000" fill-opacity="0.0" d="m600.9134 169.17061l78.96063 0l18.86615 18.866135l-18.86615 18.86615l-78.96063 0z" fill-rule="evenodd"/><path stroke="#d9d9d9" stroke-width="3.0" stroke-linejoin="round" stroke-linecap="butt" d="m600.9134 169.17061l78.96063 0l18.86615 18.866135l-18.86615 18.86615l-78.96063 0z" fill-rule="evenodd"/><path fill="#d9d9d9" d="m626.477 186.86299l-2.40625 0l0 8.09375l-2.78125 0l0 -8.09375l-1.53125 0l0 -1.34375l1.53125 -0.75l0 -0.75q0 -1.296875 0.4375 -2.015625q0.4375 -0.71875 1.25 -1.015625q0.8125 -0.296875 1.90625 -0.296875q0.828125 0 1.484375 0.125q0.671875 0.125 1.078125 0.296875l-0.71875 2.03125q-0.3125 -0.09375 -0.6875 -0.171875q-0.375 -0.09375 -0.859375 -0.09375q-0.578125 0 -0.84375 0.359375q-0.265625 0.359375 -0.265625 0.890625l0 0.640625l2.40625 0l0 2.09375zm10.829346 2.984375q0 2.53125 -1.328125 3.921875q-1.328125 1.375 -3.625 1.375q-1.421875 0 -2.53125 -0.609375q-1.109375 -0.625 -1.75 -1.8125q-0.625 -1.1875 -0.625 -2.875q0 -2.546875 1.3125 -3.90625q1.328125 -1.359375 3.640625 -1.359375q1.4375 0 2.53125 0.625q1.109375 0.609375 1.734375 1.78125q0.640625 1.15625 0.640625 2.859375zm-7.03125 0q0 1.515625 0.5 2.296875q0.5 0.765625 1.609375 0.765625q1.109375 0 1.59375 -0.765625q0.5 -0.78125 0.5 -2.296875q0 -1.515625 -0.5 -2.265625q-0.484375 -0.765625 -1.609375 -0.765625q-1.09375 0 -1.59375 0.765625q-0.5 0.75 -0.5 2.265625zm15.016968 -5.265625q0.203125 0 0.484375 0.03125q0.28125 0.015625 0.453125 0.046875l-0.203125 2.609375q-0.125 -0.03125 -0.390625 -0.0625q-0.25 -0.03125 -0.4375 -0.03125q-0.703125 0 -1.359375 0.25q-0.65625 0.25 -1.0625 0.8125q-0.390625 0.5625 -0.390625 1.53125l0 5.1875l-2.78125 0l0 -10.1875l2.109375 0l0.40625 1.71875l0.140625 0q0.4375 -0.78125 1.21875 -1.34375q0.796875 -0.5625 1.8125 -0.5625zm5.5637207 2.546875q0 0.578125 -0.046875 1.140625q-0.046875 0.5625 -0.109375 1.140625l0.046875 0q0.28125 -0.390625 0.578125 -0.78125q0.296875 -0.40625 0.625 -0.765625l2.859375 -3.09375l3.140625 0l-4.046875 4.421875l4.28125 5.765625l-3.203125 0l-2.9375 -4.125l-1.1875 0.953125l0 3.171875l-2.78125 0l0 -14.171875l2.78125 0l0 6.34375zm8.08252 2.71875q0 -2.28125 0.65625 -4.390625q0.671875 -2.125 2.078125 -3.828125l2.28125 0q-1.265625 1.765625 -1.9375 3.875q-0.65625 2.109375 -0.65625 4.328125q0 2.15625 0.65625 4.265625q0.671875 2.09375 1.921875 3.8125l-2.265625 0q-1.40625 -1.640625 -2.078125 -3.71875q-0.65625 -2.09375 -0.65625 -4.34375zm11.152588 0q0 2.25 -0.671875 4.34375q-0.65625 2.078125 -2.078125 3.71875l-2.25 0q1.265625 -1.71875 1.921875 -3.8125q0.65625 -2.109375 0.65625 -4.265625q0 -2.21875 -0.671875 -4.328125q-0.65625 -2.109375 -1.921875 -3.875l2.265625 0q1.421875 1.703125 2.078125 3.828125q0.671875 2.109375 0.671875 4.390625z" fill-rule="nonzero"/></g></svg>